<?xml version="1.0" encoding="UTF-8"?>
<!DOCTYPE svg PUBLIC "-//W3C//DTD SVG 1.1//EN" "http://www.w3.org/Graphics/SVG/1.1/DTD/svg11.dtd">
<svg xmlns="http://www.w3.org/2000/svg" version="1.1" width="320px" height="180px" style="shape-rendering:geometricPrecision; text-rendering:geometricPrecision; image-rendering:optimizeQuality; fill-rule:evenodd; clip-rule:evenodd" xmlns:xlink="http://www.w3.org/1999/xlink">
<g><path style="opacity:1" fill="#fdfdfd" d="M -0.5,-0.5 C 106.167,-0.5 212.833,-0.5 319.5,-0.5C 319.5,59.5 319.5,119.5 319.5,179.5C 212.833,179.5 106.167,179.5 -0.5,179.5C -0.5,119.5 -0.5,59.5 -0.5,-0.5 Z"/></g>
<g><path style="opacity:1" fill="#252526" d="M 161.5,29.5 C 163.167,29.5 164.833,29.5 166.5,29.5C 166.5,42.1667 166.5,54.8333 166.5,67.5C 164.833,67.5 163.167,67.5 161.5,67.5C 161.5,54.8333 161.5,42.1667 161.5,29.5 Z"/></g>
<g><path style="opacity:1" fill="#4b4b7c" d="M 239.5,149.5 C 243.232,147.869 247.232,146.869 251.5,146.5C 283.886,140.776 301.219,121.443 303.5,88.5C 299.63,53.0774 279.963,34.0774 244.5,31.5C 214.766,33.397 195.933,48.7303 188,77.5C 183.87,104.73 193.37,125.564 216.5,140C 223.043,143.681 230.043,145.848 237.5,146.5C 237.611,147.117 237.944,147.617 238.5,148C 236.866,148.494 235.199,148.66 233.5,148.5C 198.825,138.639 182.658,115.639 185,79.5C 191.407,51.0926 208.907,34.2593 237.5,29C 272.559,27.7304 295.059,43.8971 305,77.5C 308.124,115.026 291.624,138.859 255.5,149C 250.177,149.499 244.844,149.666 239.5,149.5 Z"/></g>
<g><path style="opacity:1" fill="#4f3135" d="M 118.5,38.5 C 117.833,38.5 117.167,38.5 116.5,38.5C 117.777,36.05 119.277,33.7167 121,31.5C 121.061,34.151 120.227,36.4843 118.5,38.5 Z"/></g>
<g><path style="opacity:1" fill="#542d38" d="M 64.5,39.5 C 63.6618,39.8417 63.3284,40.5084 63.5,41.5C 61.6701,39.1737 60.3367,36.507 59.5,33.5C 59.8457,32.3044 60.3457,32.3044 61,33.5C 62.4213,35.4048 63.588,37.4048 64.5,39.5 Z"/></g>
<g><path style="opacity:1" fill="#dbeef8" d="M 251.5,146.5 C 246.833,146.5 242.167,146.5 237.5,146.5C 230.043,145.848 223.043,143.681 216.5,140C 193.37,125.564 183.87,104.73 188,77.5C 195.933,48.7303 214.766,33.397 244.5,31.5C 279.963,34.0774 299.63,53.0774 303.5,88.5C 301.219,121.443 283.886,140.776 251.5,146.5 Z"/></g>
<g><path style="opacity:1" fill="#892c36" d="M 116.5,38.5 C 117.167,38.5 117.833,38.5 118.5,38.5C 117.674,43.4987 115.341,47.4987 111.5,50.5C 110.508,50.6716 109.842,50.3382 109.5,49.5C 111.055,45.4031 113.388,41.7364 116.5,38.5 Z"/></g>
<g><path style="opacity:1" fill="#97cfe6" d="M 294.5,115.5 C 293.272,114.694 292.272,113.694 291.5,112.5C 290.942,111.21 289.942,110.377 288.5,110C 289.667,109.5 290.5,108.667 291,107.5C 291.579,111.386 292.412,111.386 293.5,107.5C 289.665,104.191 286.998,104.857 285.5,109.5C 284.041,109.433 282.708,109.766 281.5,110.5C 282.455,108.254 283.122,105.921 283.5,103.5C 285.075,101.355 286.409,99.0215 287.5,96.5C 286.757,90.8631 286.257,85.1964 286,79.5C 284.204,75.3173 282.871,70.984 282,66.5C 281.5,67.5 281,68.5 280.5,69.5C 281.747,71.323 282.414,73.323 282.5,75.5C 278.601,66.7031 272.601,59.7031 264.5,54.5C 264.056,52.8868 263.056,51.7202 261.5,51C 257.469,50.5193 253.469,49.8527 249.5,49C 244.593,48.3653 239.926,48.8653 235.5,50.5C 232.402,50.5875 232.068,50.0875 234.5,49C 232.155,48.8301 229.821,49.1635 227.5,50C 223.927,53.2811 219.927,55.7811 215.5,57.5C 214.512,60.9796 213.178,64.3129 211.5,67.5C 210.674,70.4848 209.341,73.1515 207.5,75.5C 205.267,79.7816 204.267,84.4483 204.5,89.5C 204.528,94.2728 205.195,98.9394 206.5,103.5C 206.504,105.842 207.337,107.842 209,109.5C 209.333,108.833 209.667,108.167 210,107.5C 214.36,114.359 219.86,120.026 226.5,124.5C 223.887,123.364 221.387,123.698 219,125.5C 217.581,124.54 216.081,123.707 214.5,123C 215.022,122.439 215.355,121.772 215.5,121C 212.43,116.987 209.263,113.154 206,109.5C 205.768,110.737 205.268,111.737 204.5,112.5C 203.782,109.597 202.782,107.264 201.5,105.5C 201.5,104.5 201.5,103.5 201.5,102.5C 201.5,101.833 201.167,101.5 200.5,101.5C 200.672,100.508 200.338,99.8417 199.5,99.5C 200.953,98.1751 200.619,97.3418 198.5,97C 199.76,95.1862 199.76,93.3529 198.5,91.5C 198.251,92.5821 198.085,93.9154 198,95.5C 197.31,96.7383 196.81,96.7383 196.5,95.5C 196.611,94.8826 196.944,94.3826 197.5,94C 196.027,93.2904 195.36,92.1238 195.5,90.5C 196.833,90.5 198.167,90.5 199.5,90.5C 199.587,87.4017 199.087,87.0684 198,89.5C 197,86.8333 196,86.8333 195,89.5C 194.722,88.5842 194.222,87.9175 193.5,87.5C 194.718,86.8386 196.051,86.1719 197.5,85.5C 197.154,84.3044 196.654,84.3044 196,85.5C 194.961,84.7562 194.461,83.7562 194.5,82.5C 197.467,84.2659 199.467,83.5992 200.5,80.5C 201.315,81.4293 202.148,82.4293 203,83.5C 204.694,81.4304 204.861,79.2638 203.5,77C 204.167,76 204.833,75 205.5,74C 204.767,72.2341 204.433,70.4008 204.5,68.5C 204.36,66.8762 205.027,65.7096 206.5,65C 205.944,64.6174 205.611,64.1174 205.5,63.5C 204.417,63.4606 203.417,63.1272 202.5,62.5C 201.494,62.9377 201.494,63.6043 202.5,64.5C 201.726,65.7112 200.893,65.7112 200,64.5C 199.536,65.0944 199.369,65.7611 199.5,66.5C 199.167,66.5 198.833,66.5 198.5,66.5C 198.879,63.4331 197.879,62.4331 195.5,63.5C 209.616,38.7486 230.949,29.2486 259.5,35C 285.43,43.609 299.43,61.609 301.5,89C 300.79,98.3461 298.456,107.179 294.5,115.5 Z"/></g>
<g><path style="opacity:1" fill="#356072" d="M 221.5,49.5 C 220.84,43.1852 222.507,42.1852 226.5,46.5C 224.772,46.7877 223.105,47.7877 221.5,49.5 Z"/></g>
<g><path style="opacity:1" fill="#406c82" d="M 233.5,38.5 C 234.822,38.33 235.989,38.6634 237,39.5C 237.273,41.1012 237.773,42.6012 238.5,44C 236.873,43.5704 235.373,43.4037 234,43.5C 233.506,41.8659 233.34,40.1992 233.5,38.5 Z"/></g>
<g><path style="opacity:1" fill="#1e495e" d="M 228.5,40.5 C 229.75,40.5774 230.583,41.244 231,42.5C 231.556,40.4049 232.056,40.2382 232.5,42C 230.192,46.5367 228.858,46.0367 228.5,40.5 Z"/></g>
<g><path style="opacity:1" fill="#2e5871" d="M 260.5,41.5 C 261.386,40.2241 262.386,40.2241 263.5,41.5C 262.316,43.0461 261.316,44.7127 260.5,46.5C 260.519,44.8052 260.519,43.1385 260.5,41.5 Z"/></g>
<g><path style="opacity:1" fill="#204a5f" d="M 245.5,37.5 C 246.675,37.281 247.675,37.6143 248.5,38.5C 247.253,44.837 246.253,44.5036 245.5,37.5 Z"/></g>
<g><path style="opacity:1" fill="#5a8699" d="M 240.5,37.5 C 244.013,38.0282 245.013,39.8615 243.5,43C 238.289,43.5464 237.289,41.713 240.5,37.5 Z"/></g>
<g><path style="opacity:1" fill="#1d5260" d="M 254.5,39.5 C 258.893,39.4568 259.226,39.9568 255.5,41C 254.874,41.7504 254.374,42.5838 254,43.5C 253.421,42.0715 253.588,40.7382 254.5,39.5 Z"/></g>
<g><path style="opacity:1" fill="#244e63" d="M 249.5,38.5 C 252.598,38.4125 252.932,38.9125 250.5,40C 253.167,40.6667 253.167,41.3333 250.5,42C 253.332,43.9076 252.999,44.741 249.5,44.5C 249.5,42.5 249.5,40.5 249.5,38.5 Z"/></g>
<g><path style="opacity:1" fill="#503624" d="M 59.5,51.5 C 56.7387,50.0795 53.7387,49.4129 50.5,49.5C 50.3367,51.8568 50.5034,54.1902 51,56.5C 52.7398,57.7158 53.7398,59.3825 54,61.5C 55.0495,62.5171 56.2161,62.6838 57.5,62C 56.8333,61.6667 56.1667,61.3333 55.5,61C 56.9733,60.2904 57.6399,59.1238 57.5,57.5C 58.5,57.5 59.5,57.5 60.5,57.5C 60.6168,59.4835 59.9501,61.1502 58.5,62.5C 59.9441,65.2264 61.9441,66.2264 64.5,65.5C 64.3253,67.6208 64.6586,69.6208 65.5,71.5C 62.0735,69.433 58.4069,67.7663 54.5,66.5C 51.7199,67.4569 49.0533,68.6236 46.5,70C 45.6634,71.0113 45.33,72.1779 45.5,73.5C 43.9172,71.3374 42.5839,69.0041 41.5,66.5C 43.6702,67.768 45.8368,67.768 48,66.5C 47.8379,63.5115 47.3379,60.5115 46.5,57.5C 46.9382,57.5654 47.2716,57.3988 47.5,57C 42.9705,56.1717 41.6372,53.6717 43.5,49.5C 45.2163,46.8455 47.7163,45.1788 51,44.5C 53.5302,47.1845 56.3636,49.5178 59.5,51.5 Z"/></g>
<g><path style="opacity:1" fill="#356a83" d="M 221.5,49.5 C 221.103,50.525 220.437,50.6917 219.5,50C 218.075,48.6381 217.242,47.1381 217,45.5C 217.414,45.0426 217.914,44.7093 218.5,44.5C 219.065,46.5435 220.065,48.2102 221.5,49.5 Z"/></g>
<g><path style="opacity:1" fill="#912f34" d="M 64.5,39.5 C 66.5224,41.5313 68.1891,43.8646 69.5,46.5C 69.7678,48.099 69.4345,49.4324 68.5,50.5C 67.791,49.596 66.791,49.2627 65.5,49.5C 64.8333,46.8333 64.1667,44.1667 63.5,41.5C 63.3284,40.5084 63.6618,39.8417 64.5,39.5 Z"/></g>
<g><path style="opacity:1" fill="#925b38" d="M 127.5,46.5 C 127.782,47.7777 128.449,48.7777 129.5,49.5C 128.5,49.5 127.5,49.5 126.5,49.5C 126.383,51.4835 127.05,53.1502 128.5,54.5C 128.333,54.8333 128.167,55.1667 128,55.5C 126.534,53.6751 124.701,53.1751 122.5,54C 123.056,54.3826 123.389,54.8826 123.5,55.5C 121.824,54.8166 121.157,53.4832 121.5,51.5C 123.5,49.8333 125.5,48.1667 127.5,46.5 Z"/></g>
<g><path style="opacity:1" fill="#5f8e9f" d="M 271.5,48.5 C 269.321,49.1032 267.154,49.7699 265,50.5C 264.56,48.9238 263.727,47.5904 262.5,46.5C 263.333,44.8333 264.167,43.1667 265,41.5C 265.333,42.5 265.667,43.5 266,44.5C 269.764,42.9749 271.597,44.3083 271.5,48.5 Z"/></g>
<g><path style="opacity:1" fill="#2c516c" d="M 213.5,48.5 C 215.305,49.2371 216.971,50.2371 218.5,51.5C 216.868,51.2385 215.701,52.2385 215,54.5C 213.681,52.7505 213.181,50.7505 213.5,48.5 Z"/></g>
<g><path style="opacity:1" fill="#aabfd4" d="M 235.5,50.5 C 225.861,53.7987 217.861,59.4654 211.5,67.5C 213.178,64.3129 214.512,60.9796 215.5,57.5C 219.927,55.7811 223.927,53.2811 227.5,50C 229.821,49.1635 232.155,48.8301 234.5,49C 232.068,50.0875 232.402,50.5875 235.5,50.5 Z"/></g>
<g><path style="opacity:1" fill="#9ba5b5" d="M 264.5,54.5 C 255.201,50.9232 245.534,49.5899 235.5,50.5C 239.926,48.8653 244.593,48.3653 249.5,49C 253.469,49.8527 257.469,50.5193 261.5,51C 263.056,51.7202 264.056,52.8868 264.5,54.5 Z"/></g>
<g><path style="opacity:1" fill="#2c4766" d="M 271.5,48.5 C 272.458,48.0472 273.292,47.3805 274,46.5C 274.251,48.433 274.751,50.2663 275.5,52C 275,52.5 274.5,53 274,53.5C 273.667,52.1667 273.333,50.8333 273,49.5C 272.577,50.9561 271.744,51.4561 270.5,51C 271.252,50.3292 271.586,49.4959 271.5,48.5 Z"/></g>
<g><path style="opacity:1" fill="#583b25" d="M 109.5,49.5 C 109.842,50.3382 110.508,50.6716 111.5,50.5C 112.369,52.717 112.702,55.0504 112.5,57.5C 111.698,56.0484 111.198,54.3817 111,52.5C 110.784,54.3839 110.117,56.0506 109,57.5C 108.825,60.1572 108.992,62.8239 109.5,65.5C 107.989,63.5242 107.156,61.1909 107,58.5C 105.629,62.4031 104.462,62.4031 103.5,58.5C 105.13,56.9739 105.963,54.9739 106,52.5C 106.759,50.9371 107.926,49.9371 109.5,49.5 Z"/></g>
<g><path style="opacity:1" fill="#c4813b" d="M 129.5,49.5 C 129.5,51.8333 129.5,54.1667 129.5,56.5C 128.244,58.3439 126.577,59.6772 124.5,60.5C 122.197,60.1237 121.863,59.1237 123.5,57.5C 124.833,56.8333 124.833,56.1667 123.5,55.5C 123.389,54.8826 123.056,54.3826 122.5,54C 124.701,53.1751 126.534,53.6751 128,55.5C 128.167,55.1667 128.333,54.8333 128.5,54.5C 127.05,53.1502 126.383,51.4835 126.5,49.5C 127.5,49.5 128.5,49.5 129.5,49.5 Z"/></g>
<g><path style="opacity:1" fill="#6599ac" d="M 278.5,53.5 C 280.722,53.178 282.556,53.8446 284,55.5C 283.937,58.1729 283.271,58.1729 282,55.5C 281.51,56.7932 281.343,58.1266 281.5,59.5C 280.178,59.33 279.011,59.6634 278,60.5C 277.297,58.0709 277.463,55.7375 278.5,53.5 Z"/></g>
<g><path style="opacity:1" fill="#bb814e" d="M 59.5,51.5 C 58.4019,52.397 58.4019,53.2303 59.5,54C 56.4094,54.691 55.2428,56.5243 56,59.5C 56.2784,58.5842 56.7784,57.9175 57.5,57.5C 57.6399,59.1238 56.9733,60.2904 55.5,61C 56.1667,61.3333 56.8333,61.6667 57.5,62C 56.2161,62.6838 55.0495,62.5171 54,61.5C 53.7398,59.3825 52.7398,57.7158 51,56.5C 50.5034,54.1902 50.3367,51.8568 50.5,49.5C 53.7387,49.4129 56.7387,50.0795 59.5,51.5 Z"/></g>
<g><path style="opacity:1" fill="#4b2c11" d="M 59.5,51.5 C 61.0059,54.1263 60.3392,56.1263 57.5,57.5C 56.7784,57.9175 56.2784,58.5842 56,59.5C 55.2428,56.5243 56.4094,54.691 59.5,54C 58.4019,53.2303 58.4019,52.397 59.5,51.5 Z"/></g>
<g><path style="opacity:1" fill="#322115" d="M 121.5,51.5 C 121.157,53.4832 121.824,54.8166 123.5,55.5C 124.833,56.1667 124.833,56.8333 123.5,57.5C 121.701,56.7304 120.368,55.397 119.5,53.5C 119.855,52.4777 120.522,51.811 121.5,51.5 Z"/></g>
<g><path style="opacity:1" fill="#7b5c3b" d="M 129.5,49.5 C 130.144,51.8804 131.311,54.2137 133,56.5C 136.312,55.5455 136.312,55.8788 133,57.5C 131.954,55.8048 130.787,55.4715 129.5,56.5C 129.5,54.1667 129.5,51.8333 129.5,49.5 Z"/></g>
<g><path style="opacity:1" fill="#3e2818" d="M 134.5,83.5 C 133.162,79.4946 133.495,75.4946 135.5,71.5C 132.54,69.5317 129.373,67.8651 126,66.5C 124.237,66.9755 122.57,67.6422 121,68.5C 120.667,68.1667 120.333,67.8333 120,67.5C 117.27,71.4567 113.437,73.7901 108.5,74.5C 108.5,74.1667 108.5,73.8333 108.5,73.5C 109.833,73.5 110.5,72.8333 110.5,71.5C 115.791,71.5605 117.458,69.2272 115.5,64.5C 116.268,65.2625 116.768,66.2625 117,67.5C 118.558,65.6411 120.391,64.1411 122.5,63C 120.845,61.5557 120.178,59.7224 120.5,57.5C 121.5,57.5 122.5,57.5 123.5,57.5C 121.863,59.1237 122.197,60.1237 124.5,60.5C 126.577,59.6772 128.244,58.3439 129.5,56.5C 130.787,55.4715 131.954,55.8048 133,57.5C 136.312,55.8788 136.312,55.5455 133,56.5C 131.311,54.2137 130.144,51.8804 129.5,49.5C 128.449,48.7777 127.782,47.7777 127.5,46.5C 127.866,45.3054 128.699,44.6387 130,44.5C 137.486,46.9863 141.653,52.153 142.5,60C 141.727,66.6141 139.227,72.4475 135,77.5C 134.505,79.4727 134.338,81.4727 134.5,83.5 Z"/></g>
<g><path style="opacity:1" fill="#927055" d="M 132.5,50.5 C 137,48.8368 138.5,50.5035 137,55.5C 135.883,54.0506 135.216,52.3839 135,50.5C 134.23,51.5981 133.397,51.5981 132.5,50.5 Z"/></g>
<g><path style="opacity:1" fill="#618da6" d="M 208.5,52.5 C 213.571,53.0229 214.404,55.0229 211,58.5C 209.676,57.1198 208.343,56.7865 207,57.5C 206.36,55.4567 206.86,53.7901 208.5,52.5 Z"/></g>
<g><path style="opacity:1" fill="#986b4a" d="M 68.5,52.5 C 70.7957,52.8041 71.129,53.8041 69.5,55.5C 68.7508,58.638 67.4175,61.3046 65.5,63.5C 66.6137,59.75 67.6137,56.0833 68.5,52.5 Z"/></g>
<g><path style="opacity:1" fill="#553c33" d="M 69.5,46.5 C 71.9992,48.8563 73.9992,51.6897 75.5,55C 73.9933,56.6674 74.3266,57.834 76.5,58.5C 75.7659,59.7079 75.4326,61.0413 75.5,62.5C 74.8571,60.9236 73.8571,59.5903 72.5,58.5C 71.8333,57.1667 70.8333,56.1667 69.5,55.5C 71.129,53.8041 70.7957,52.8041 68.5,52.5C 68.5,51.8333 68.5,51.1667 68.5,50.5C 69.4345,49.4324 69.7678,48.099 69.5,46.5 Z"/></g>
<g><path style="opacity:1" fill="#2c2017" d="M 43.5,49.5 C 41.6372,53.6717 42.9705,56.1717 47.5,57C 47.2716,57.3988 46.9382,57.5654 46.5,57.5C 44.4078,57.5614 42.9078,58.5614 42,60.5C 42.4229,62.3867 42.2563,64.3867 41.5,66.5C 42.5839,69.0041 43.9172,71.3374 45.5,73.5C 45.8333,74.1667 46.1667,74.8333 46.5,75.5C 46.5,76.1667 46.5,76.8333 46.5,77.5C 41.2409,72.5869 38.5742,66.4203 38.5,59C 39.7299,56.2467 40.7299,53.4134 41.5,50.5C 41.9569,49.7025 42.6236,49.3691 43.5,49.5 Z"/></g>
<g><path style="opacity:1" fill="#a77243" d="M 46.5,57.5 C 47.3379,60.5115 47.8379,63.5115 48,66.5C 45.8368,67.768 43.6702,67.768 41.5,66.5C 42.2563,64.3867 42.4229,62.3867 42,60.5C 42.9078,58.5614 44.4078,57.5614 46.5,57.5 Z"/></g>
<g><path style="opacity:1" fill="#cb8a4f" d="M 48.5,58.5 C 51.0764,58.7218 51.9098,60.0551 51,62.5C 49.5187,61.5291 48.6854,60.1958 48.5,58.5 Z"/></g>
<g><path style="opacity:1" fill="#36536e" d="M 205.5,63.5 C 204.77,62.2876 203.77,61.2876 202.5,60.5C 203.498,57.9722 204.331,57.9722 205,60.5C 205.333,60.1667 205.667,59.8333 206,59.5C 206.448,61.2244 207.282,61.891 208.5,61.5C 207.995,62.9185 206.995,63.5852 205.5,63.5 Z"/></g>
<g><path style="opacity:1" fill="#2b5771" d="M 283.5,58.5 C 287.243,58.4592 287.41,59.1259 284,60.5C 283.517,61.448 283.351,62.448 283.5,63.5C 284.552,63.3505 285.552,63.5172 286.5,64C 281.676,64.1833 280.676,62.3499 283.5,58.5 Z"/></g>
<g><path style="opacity:1" fill="#cb803f" d="M 112.5,57.5 C 114.065,59.5093 115.065,61.8427 115.5,64.5C 117.458,69.2272 115.791,71.5605 110.5,71.5C 110.784,69.5853 110.451,67.9187 109.5,66.5C 109.5,66.1667 109.5,65.8333 109.5,65.5C 108.992,62.8239 108.825,60.1572 109,57.5C 110.117,56.0506 110.784,54.3839 111,52.5C 111.198,54.3817 111.698,56.0484 112.5,57.5 Z"/></g>
<g><path style="opacity:1" fill="#ab855d" d="M 130.5,58.5 C 131.289,58.7828 131.956,59.2828 132.5,60C 126.95,67.4148 126.284,66.9148 130.5,58.5 Z"/></g>
<g><path style="opacity:1" fill="#b37b42" d="M 135.5,71.5 C 135.607,69.0968 134.607,67.2635 132.5,66C 136.044,64.7465 136.377,62.9132 133.5,60.5C 133.868,59.09 134.701,58.09 136,57.5C 137.804,59.2775 138.637,61.4441 138.5,64C 136.962,65.9599 135.962,68.4599 135.5,71.5 Z"/></g>
<g><path style="opacity:1" fill="#764928" d="M 72.5,58.5 C 71.1659,63.5054 71.1659,68.1721 72.5,72.5C 71.791,73.404 70.791,73.7373 69.5,73.5C 67.6203,73.7709 66.287,73.1042 65.5,71.5C 70.5867,71.7155 71.5867,69.8822 68.5,66C 69.3778,63.1509 70.7111,60.6509 72.5,58.5 Z"/></g>
<g><path style="opacity:1" fill="#4b7089" d="M 205.5,63.5 C 205.611,64.1174 205.944,64.6174 206.5,65C 205.027,65.7096 204.36,66.8762 204.5,68.5C 202.95,67.5592 201.284,66.8925 199.5,66.5C 199.369,65.7611 199.536,65.0944 200,64.5C 200.893,65.7112 201.726,65.7112 202.5,64.5C 201.494,63.6043 201.494,62.9377 202.5,62.5C 203.417,63.1272 204.417,63.4606 205.5,63.5 Z"/></g>
<g><path style="opacity:1" fill="#395d70" d="M 287.5,64.5 C 291.135,64.6556 291.468,65.8223 288.5,68C 289.938,68.2189 291.271,68.7189 292.5,69.5C 291.131,71.124 289.464,71.624 287.5,71C 288.167,70.6667 288.833,70.3333 289.5,70C 287.641,69.3161 285.974,68.3161 284.5,67C 285.571,66.1482 286.571,65.3149 287.5,64.5 Z"/></g>
<g><path style="opacity:1" fill="#a29995" d="M 103.5,58.5 C 104.462,62.4031 105.629,62.4031 107,58.5C 107.156,61.1909 107.989,63.5242 109.5,65.5C 109.5,65.8333 109.5,66.1667 109.5,66.5C 109.322,67.6948 108.989,68.8615 108.5,70C 108.836,71.0299 109.503,71.5299 110.5,71.5C 110.5,72.8333 109.833,73.5 108.5,73.5C 108.167,73.5 107.833,73.5 107.5,73.5C 107.768,71.901 107.434,70.5676 106.5,69.5C 106.196,68.8501 105.863,68.1835 105.5,67.5C 95.1881,66.5014 84.8548,66.1681 74.5,66.5C 74.5,67.5 74.5,68.5 74.5,69.5C 73.1667,69.5 72.5,70.1667 72.5,71.5C 72.5,71.8333 72.5,72.1667 72.5,72.5C 71.1659,68.1721 71.1659,63.5054 72.5,58.5C 73.8571,59.5903 74.8571,60.9236 75.5,62.5C 75.4326,61.0413 75.7659,59.7079 76.5,58.5C 79.761,52.2373 84.4276,47.2373 90.5,43.5C 95.9704,47.6285 100.304,52.6285 103.5,58.5 Z"/></g>
<g><path style="opacity:1" fill="#fdf8f6" d="M 106.5,69.5 C 95.8333,69.5 85.1667,69.5 74.5,69.5C 74.5,68.5 74.5,67.5 74.5,66.5C 84.8548,66.1681 95.1881,66.5014 105.5,67.5C 105.863,68.1835 106.196,68.8501 106.5,69.5 Z"/></g>
<g><path style="opacity:1" fill="#202021" d="M 75.5,62.5 C 79.3437,56.1433 84.177,50.4766 90,45.5C 96.658,50.8236 101.825,57.3236 105.5,65C 95.1667,65.6667 84.8333,65.6667 74.5,65C 75.2524,64.3292 75.5858,63.4959 75.5,62.5 Z"/></g>
<g><path style="opacity:1" fill="#c6813e" d="M 69.5,55.5 C 70.8333,56.1667 71.8333,57.1667 72.5,58.5C 70.7111,60.6509 69.3778,63.1509 68.5,66C 71.5867,69.8822 70.5867,71.7155 65.5,71.5C 64.6586,69.6208 64.3253,67.6208 64.5,65.5C 64.3284,64.5084 64.6618,63.8417 65.5,63.5C 67.4175,61.3046 68.7508,58.638 69.5,55.5 Z"/></g>
<g><path style="opacity:1" fill="#633b23" d="M 109.5,66.5 C 110.451,67.9187 110.784,69.5853 110.5,71.5C 109.503,71.5299 108.836,71.0299 108.5,70C 108.989,68.8615 109.322,67.6948 109.5,66.5 Z"/></g>
<g><path style="opacity:1" fill="#944244" d="M 74.5,69.5 C 85.1667,69.5 95.8333,69.5 106.5,69.5C 107.434,70.5676 107.768,71.901 107.5,73.5C 105.858,71.9192 103.858,71.2525 101.5,71.5C 100.891,74.8784 102.224,76.8784 105.5,77.5C 105.53,78.4972 105.03,79.1639 104,79.5C 102.862,79.0109 101.695,78.6775 100.5,78.5C 99.5791,74.1235 97.0791,72.7902 93,74.5C 92.1368,76.7489 92.6368,78.5822 94.5,80C 91.2939,82.0087 88.9606,81.1754 87.5,77.5C 87.7118,75.6159 88.7118,74.2826 90.5,73.5C 89.0866,71.3929 87.4199,71.0595 85.5,72.5C 83.847,72.6596 82.5137,73.3263 81.5,74.5C 80.1667,74.5 79.5,75.1667 79.5,76.5C 81.2859,78.6754 82.9526,81.0087 84.5,83.5C 82.8914,83.3886 81.2247,83.722 79.5,84.5C 79.5,83.8333 79.1667,83.5 78.5,83.5C 80.0234,81.4143 79.69,79.7476 77.5,78.5C 77.9567,76.2532 78.9567,74.2532 80.5,72.5C 77.9135,71.52 75.2469,71.1866 72.5,71.5C 72.5,70.1667 73.1667,69.5 74.5,69.5 Z"/></g>
<g><path style="opacity:1" fill="#bfaba4" d="M 85.5,72.5 C 87.4199,71.0595 89.0866,71.3929 90.5,73.5C 88.7118,74.2826 87.7118,75.6159 87.5,77.5C 85.7973,76.3398 85.1307,77.0065 85.5,79.5C 82.4017,79.5875 82.0684,79.0875 84.5,78C 83.7286,76.0021 84.3952,74.3354 86.5,73C 86.2716,72.6012 85.9382,72.4346 85.5,72.5 Z"/></g>
<g><path style="opacity:1" fill="#2b211a" d="M 147.5,74.5 C 146.952,71.9162 145.285,70.9162 142.5,71.5C 143.548,69.4662 145.214,68.1329 147.5,67.5C 148.797,69.9732 148.797,72.3066 147.5,74.5 Z"/></g>
<g><path style="opacity:1" fill="#d6873e" d="M 65.5,71.5 C 66.287,73.1042 67.6203,73.7709 69.5,73.5C 70.209,74.404 71.209,74.7373 72.5,74.5C 72.3505,75.552 72.5172,76.552 73,77.5C 73.3333,77.1667 73.6667,76.8333 74,76.5C 74.8159,77.8228 75.9826,78.4894 77.5,78.5C 76.8333,79.8333 75.8333,80.8333 74.5,81.5C 72.9724,80.6908 71.3057,80.0241 69.5,79.5C 66.1136,76.7682 62.1136,75.7682 57.5,76.5C 57.082,73.5611 55.582,71.2278 53,69.5C 52.4926,70.9961 52.9926,72.1627 54.5,73C 53.5509,73.6172 52.7175,73.4506 52,72.5C 50.7365,74.607 48.9032,75.607 46.5,75.5C 46.1667,74.8333 45.8333,74.1667 45.5,73.5C 45.33,72.1779 45.6634,71.0113 46.5,70C 49.0533,68.6236 51.7199,67.4569 54.5,66.5C 58.4069,67.7663 62.0735,69.433 65.5,71.5 Z"/></g>
<g><path style="opacity:1" fill="#b63530" d="M 107.5,73.5 C 107.833,73.5 108.167,73.5 108.5,73.5C 108.5,73.8333 108.5,74.1667 108.5,74.5C 107.694,75.7281 106.694,76.7281 105.5,77.5C 102.224,76.8784 100.891,74.8784 101.5,71.5C 103.858,71.2525 105.858,71.9192 107.5,73.5 Z"/></g>
<g><path style="opacity:1" fill="#c57b38" d="M 135.5,71.5 C 133.495,75.4946 133.162,79.4946 134.5,83.5C 134.5,86.1667 134.5,88.8333 134.5,91.5C 134.036,85.8914 131.869,80.8914 128,76.5C 127.064,80.4577 128.23,83.6244 131.5,86C 130.529,87.4813 129.196,88.3146 127.5,88.5C 125.466,86.0241 123.133,84.6908 120.5,84.5C 121.055,82.2712 122.389,80.6046 124.5,79.5C 125.784,74.3549 125.118,74.1883 122.5,79C 120.803,79.3845 119.137,79.2178 117.5,78.5C 114.671,77.2847 111.838,77.618 109,79.5C 107.697,79.0217 106.531,78.355 105.5,77.5C 106.694,76.7281 107.694,75.7281 108.5,74.5C 113.437,73.7901 117.27,71.4567 120,67.5C 120.333,67.8333 120.667,68.1667 121,68.5C 122.57,67.6422 124.237,66.9755 126,66.5C 129.373,67.8651 132.54,69.5317 135.5,71.5 Z"/></g>
<g><path style="opacity:1" fill="#341e0f" d="M 147.5,74.5 C 146.147,76.7379 144.147,78.0713 141.5,78.5C 141.586,77.5041 141.252,76.6708 140.5,76C 142.813,75.338 145.146,74.838 147.5,74.5 Z"/></g>
<g><path style="opacity:1" fill="#2d2c27" d="M 41.5,78.5 C 40.0755,76.9689 39.4088,77.3023 39.5,79.5C 37.5781,77.8987 35.4114,76.5653 33,75.5C 31.3678,72.5772 31.2012,69.5772 32.5,66.5C 37.8232,68.8152 40.8232,72.8152 41.5,78.5 Z"/></g>
<g><path style="opacity:1" fill="#fadce5" d="M 81.5,74.5 C 81.5,75.8333 80.8333,76.5 79.5,76.5C 79.5,75.1667 80.1667,74.5 81.5,74.5 Z"/></g>
<g><path style="opacity:1" fill="#2e5566" d="M 291.5,71.5 C 293.927,72.2789 293.927,73.4455 291.5,75C 296.31,77.3679 295.644,78.3679 289.5,78C 293.185,77.0855 292.852,76.4189 288.5,76C 290.891,74.6914 290.891,73.6914 288.5,73C 289.737,72.7679 290.737,72.2679 291.5,71.5 Z"/></g>
<g><path style="opacity:1" fill="#a45f27" d="M 57.5,76.5 C 56.5084,76.3284 55.8417,76.6618 55.5,77.5C 54.7326,76.828 54.0659,75.9947 53.5,75C 51.4144,74.3734 51.0811,74.8734 52.5,76.5C 51.1128,78.21 49.7794,79.8767 48.5,81.5C 47.2719,82.3065 46.2719,83.3065 45.5,84.5C 45.6741,82.139 46.0074,79.8056 46.5,77.5C 46.5,76.8333 46.5,76.1667 46.5,75.5C 48.9032,75.607 50.7365,74.607 52,72.5C 52.7175,73.4506 53.5509,73.6172 54.5,73C 52.9926,72.1627 52.4926,70.9961 53,69.5C 55.582,71.2278 57.082,73.5611 57.5,76.5 Z"/></g>
<g><path style="opacity:1" fill="#a93c2f" d="M 72.5,71.5 C 75.2469,71.1866 77.9135,71.52 80.5,72.5C 78.9567,74.2532 77.9567,76.2532 77.5,78.5C 75.9826,78.4894 74.8159,77.8228 74,76.5C 73.6667,76.8333 73.3333,77.1667 73,77.5C 72.5172,76.552 72.3505,75.552 72.5,74.5C 71.209,74.7373 70.209,74.404 69.5,73.5C 70.791,73.7373 71.791,73.404 72.5,72.5C 72.5,72.1667 72.5,71.8333 72.5,71.5 Z"/></g>
<g><path style="opacity:1" fill="#8b6a3a" d="M 57.5,76.5 C 62.1136,75.7682 66.1136,76.7682 69.5,79.5C 67.1667,79.5 64.8333,79.5 62.5,79.5C 61.4583,78.2089 60.2917,78.2089 59,79.5C 57.9614,78.7562 57.4614,77.7562 57.5,76.5 Z"/></g>
<g><path style="opacity:1" fill="#504c41" d="M 87.5,77.5 C 87.1667,78.5 86.5,79.1667 85.5,79.5C 85.1307,77.0065 85.7973,76.3398 87.5,77.5 Z"/></g>
<g><path style="opacity:1" fill="#402418" d="M 57.5,76.5 C 57.4614,77.7562 57.9614,78.7562 59,79.5C 60.2917,78.2089 61.4583,78.2089 62.5,79.5C 62.0023,82.3263 60.6689,84.6597 58.5,86.5C 60.1177,84.3441 59.7843,82.6774 57.5,81.5C 57.0269,80.0937 56.0269,79.427 54.5,79.5C 54.8333,78.8333 55.1667,78.1667 55.5,77.5C 55.8417,76.6618 56.5084,76.3284 57.5,76.5 Z"/></g>
<g><path style="opacity:1" fill="#382717" d="M 120.5,84.5 C 118.75,83.3406 117.75,81.674 117.5,79.5C 117.5,79.1667 117.5,78.8333 117.5,78.5C 119.137,79.2178 120.803,79.3845 122.5,79C 125.118,74.1883 125.784,74.3549 124.5,79.5C 122.389,80.6046 121.055,82.2712 120.5,84.5 Z"/></g>
<g><path style="opacity:1" fill="#68281f" d="M 77.5,78.5 C 79.69,79.7476 80.0234,81.4143 78.5,83.5C 74.062,83.1517 71.7286,85.1517 71.5,89.5C 71.3359,86.8127 71.5026,84.146 72,81.5C 72.7697,82.5981 73.603,82.5981 74.5,81.5C 75.8333,80.8333 76.8333,79.8333 77.5,78.5 Z"/></g>
<g><path style="opacity:1" fill="#7c6e64" d="M 69.5,79.5 C 71.3057,80.0241 72.9724,80.6908 74.5,81.5C 73.603,82.5981 72.7697,82.5981 72,81.5C 71.5026,84.146 71.3359,86.8127 71.5,89.5C 71.1667,89.5 70.8333,89.5 70.5,89.5C 69.5206,86.3752 69.1872,83.0419 69.5,79.5 Z"/></g>
<g><path style="opacity:1" fill="#d1c1be" d="M 100.5,78.5 C 100.443,79.609 100.11,80.609 99.5,81.5C 97.3488,83.0133 95.0155,84.6799 92.5,86.5C 92.2514,85.4179 92.0848,84.0846 92,82.5C 90.908,85.0444 90.2414,87.7111 90,90.5C 89.3292,91.2524 88.4959,91.5858 87.5,91.5C 89.8037,89.2966 89.9704,86.9633 88,84.5C 86.8904,86.0368 85.3904,86.7035 83.5,86.5C 82.7611,86.631 82.0944,86.4643 81.5,86C 86.2074,86.0168 87.2074,84.3502 84.5,81C 85.056,80.6174 85.3893,80.1174 85.5,79.5C 86.5,79.1667 87.1667,78.5 87.5,77.5C 88.9606,81.1754 91.2939,82.0087 94.5,80C 92.6368,78.5822 92.1368,76.7489 93,74.5C 97.0791,72.7902 99.5791,74.1235 100.5,78.5 Z"/></g>
<g><path style="opacity:1" fill="#664629" d="M 105.5,77.5 C 106.531,78.355 107.697,79.0217 109,79.5C 111.838,77.618 114.671,77.2847 117.5,78.5C 117.5,78.8333 117.5,79.1667 117.5,79.5C 115.208,79.2436 113.041,79.5769 111,80.5C 110.502,83.4816 110.335,86.4816 110.5,89.5C 109.833,87.5 109.167,85.5 108.5,83.5C 105.215,83.7896 102.215,83.123 99.5,81.5C 100.11,80.609 100.443,79.609 100.5,78.5C 101.695,78.6775 102.862,79.0109 104,79.5C 105.03,79.1639 105.53,78.4972 105.5,77.5 Z"/></g>
<g><path style="opacity:1" fill="#c17e35" d="M 54.5,79.5 C 56.0269,79.427 57.0269,80.0937 57.5,81.5C 57.3854,84.9471 55.7188,87.2804 52.5,88.5C 51.3734,87.8783 50.3734,87.045 49.5,86C 50.4362,83.7923 52.1028,81.6256 54.5,79.5 Z"/></g>
<g><path style="opacity:1" fill="#642a2b" d="M 85.5,72.5 C 85.9382,72.4346 86.2716,72.6012 86.5,73C 84.3952,74.3354 83.7286,76.0021 84.5,78C 82.0684,79.0875 82.4017,79.5875 85.5,79.5C 85.3893,80.1174 85.056,80.6174 84.5,81C 87.2074,84.3502 86.2074,86.0168 81.5,86C 82.0944,86.4643 82.7611,86.631 83.5,86.5C 81.2911,87.9758 79.9577,87.3091 79.5,84.5C 81.2247,83.722 82.8914,83.3886 84.5,83.5C 82.9526,81.0087 81.2859,78.6754 79.5,76.5C 80.8333,76.5 81.5,75.8333 81.5,74.5C 82.5137,73.3263 83.847,72.6596 85.5,72.5 Z"/></g>
<g><path style="opacity:1" fill="#f9f6f0" d="M 117.5,79.5 C 117.75,81.674 118.75,83.3406 120.5,84.5C 121.203,86.7157 122.536,88.549 124.5,90C 122.68,89.5241 121.013,89.6907 119.5,90.5C 117.552,92.3204 116.552,94.6538 116.5,97.5C 114.833,97.5 113.167,97.5 111.5,97.5C 110.559,95.9505 109.893,94.2838 109.5,92.5C 109.557,91.391 109.89,90.391 110.5,89.5C 110.335,86.4816 110.502,83.4816 111,80.5C 113.041,79.5769 115.208,79.2436 117.5,79.5 Z"/></g>
<g><path style="opacity:1" fill="#6f7c8d" d="M 284.5,94.5 C 284.647,89.7858 284.314,85.1191 283.5,80.5C 285.157,81.4973 285.824,84.164 285.5,88.5C 285.495,90.6965 285.162,92.6965 284.5,94.5 Z"/></g>
<g><path style="opacity:1" fill="#95612e" d="M 57.5,81.5 C 59.7843,82.6774 60.1177,84.3441 58.5,86.5C 57.8333,87.8333 56.8333,88.8333 55.5,89.5C 54.7638,91.2294 53.4305,92.2294 51.5,92.5C 52.2341,91.2921 52.5674,89.9587 52.5,88.5C 55.7188,87.2804 57.3854,84.9471 57.5,81.5 Z"/></g>
<g><path style="opacity:1" fill="#eb9137" d="M 55.5,77.5 C 55.1667,78.1667 54.8333,78.8333 54.5,79.5C 52.1028,81.6256 50.4362,83.7923 49.5,86C 50.3734,87.045 51.3734,87.8783 52.5,88.5C 52.5674,89.9587 52.2341,91.2921 51.5,92.5C 49.1644,94.0038 47.331,96.0038 46,98.5C 45.5683,93.2714 46.735,88.4381 49.5,84C 48.7476,83.3292 48.4142,82.4959 48.5,81.5C 49.7794,79.8767 51.1128,78.21 52.5,76.5C 51.0811,74.8734 51.4144,74.3734 53.5,75C 54.0659,75.9947 54.7326,76.828 55.5,77.5 Z"/></g>
<g><path style="opacity:1" fill="#83393d" d="M 99.5,81.5 C 102.215,83.123 105.215,83.7896 108.5,83.5C 108.632,86.5701 108.299,89.5701 107.5,92.5C 107.5,93.1667 107.167,93.5 106.5,93.5C 95.5,93.5 84.5,93.5 73.5,93.5C 72.5084,93.6716 71.8417,93.3382 71.5,92.5C 76.9265,92.7825 82.2599,92.4491 87.5,91.5C 88.4959,91.5858 89.3292,91.2524 90,90.5C 90.2414,87.7111 90.908,85.0444 92,82.5C 92.0848,84.0846 92.2514,85.4179 92.5,86.5C 95.0155,84.6799 97.3488,83.0133 99.5,81.5 Z"/></g>
<g><path style="opacity:1" fill="#c8363e" d="M 99.5,84.5 C 102.167,84.5 104.833,84.5 107.5,84.5C 107.425,87.2062 107.092,89.8728 106.5,92.5C 101.5,92.5 96.5,92.5 91.5,92.5C 91.5,90.8333 91.5,89.1667 91.5,87.5C 94.4375,87.0233 97.1042,86.0233 99.5,84.5 Z"/></g>
<g><path style="opacity:1" fill="#c64f52" d="M 161.5,70.5 C 163.167,70.5 164.833,70.5 166.5,70.5C 166.5,83.5 166.5,96.5 166.5,109.5C 164.833,109.5 163.167,109.5 161.5,109.5C 161.5,96.5 161.5,83.5 161.5,70.5 Z"/></g>
<g><path style="opacity:1" fill="#d72127" d="M 162.5,71.5 C 163.5,71.5 164.5,71.5 165.5,71.5C 165.5,83.5 165.5,95.5 165.5,107.5C 164.5,107.5 163.5,107.5 162.5,107.5C 162.5,95.5 162.5,83.5 162.5,71.5 Z"/></g>
<g><path style="opacity:1" fill="#2a5a73" d="M 193.5,87.5 C 194.222,87.9175 194.722,88.5842 195,89.5C 196,86.8333 197,86.8333 198,89.5C 199.087,87.0684 199.587,87.4017 199.5,90.5C 198.167,90.5 196.833,90.5 195.5,90.5C 193.952,90.1788 193.285,89.1788 193.5,87.5 Z"/></g>
<g><path style="opacity:1" fill="#7e5a40" d="M 41.5,78.5 C 43.1266,83.4266 42.2933,88.0933 39,92.5C 38.5065,94.1341 38.3398,95.8008 38.5,97.5C 39.5,97.5 40.5,97.5 41.5,97.5C 41.4366,98.6605 41.7699,99.9938 42.5,101.5C 37.2323,102.861 34.5657,100.861 34.5,95.5C 35.2933,91.8657 36.7933,88.5324 39,85.5C 39.4955,83.5273 39.6621,81.5273 39.5,79.5C 39.4088,77.3023 40.0755,76.9689 41.5,78.5 Z"/></g>
<g><path style="opacity:1" fill="#f7f5f0" d="M 62.5,79.5 C 64.8333,79.5 67.1667,79.5 69.5,79.5C 69.1872,83.0419 69.5206,86.3752 70.5,89.5C 70.7174,92.4206 70.0507,95.0872 68.5,97.5C 66.8333,97.5 65.1667,97.5 63.5,97.5C 63.7373,96.209 63.404,95.209 62.5,94.5C 62.7135,92.8561 62.3802,91.3561 61.5,90C 59.2755,89.9605 57.2755,89.7938 55.5,89.5C 56.8333,88.8333 57.8333,87.8333 58.5,86.5C 60.6689,84.6597 62.0023,82.3263 62.5,79.5 Z"/></g>
<g><path style="opacity:1" fill="#b9393f" d="M 78.5,83.5 C 79.1667,83.5 79.5,83.8333 79.5,84.5C 79.9577,87.3091 81.2911,87.9758 83.5,86.5C 85.3904,86.7035 86.8904,86.0368 88,84.5C 89.9704,86.9633 89.8037,89.2966 87.5,91.5C 82.2599,92.4491 76.9265,92.7825 71.5,92.5C 71.5,91.5 71.5,90.5 71.5,89.5C 71.7286,85.1517 74.062,83.1517 78.5,83.5 Z"/></g>
<g><path style="opacity:1" fill="#ab8c8b" d="M 108.5,83.5 C 109.167,85.5 109.833,87.5 110.5,89.5C 109.89,90.391 109.557,91.391 109.5,92.5C 108.833,92.5 108.167,92.5 107.5,92.5C 108.299,89.5701 108.632,86.5701 108.5,83.5 Z"/></g>
<g><path style="opacity:1" fill="#806246" d="M 142.5,71.5 C 145.285,70.9162 146.952,71.9162 147.5,74.5C 145.146,74.838 142.813,75.338 140.5,76C 141.252,76.6708 141.586,77.5041 141.5,78.5C 141.335,81.5184 141.502,84.5184 142,87.5C 143.372,88.9101 144.205,90.5767 144.5,92.5C 144.662,94.5273 144.495,96.5273 144,98.5C 142.312,100.848 140.478,101.015 138.5,99C 139.056,98.6174 139.389,98.1174 139.5,97.5C 141.106,98.7803 142.106,98.2803 142.5,96C 140.238,91.5477 138.571,86.8811 137.5,82C 138.472,79.2184 139.305,76.385 140,73.5C 140.708,72.6195 141.542,71.9528 142.5,71.5 Z"/></g>
<g><path style="opacity:1" fill="#477182" d="M 293.5,81.5 C 294.995,81.4148 295.995,82.0815 296.5,83.5C 295.726,84.7112 294.893,84.7112 294,83.5C 293.293,85.0806 292.46,86.5806 291.5,88C 293.044,87.5134 294.71,87.0134 296.5,86.5C 296.034,88.2012 296.034,89.7012 296.5,91C 294.5,91.6667 292.5,91.6667 290.5,91C 290.684,88.7237 290.684,86.3904 290.5,84C 290.944,82.2382 291.444,82.4049 292,84.5C 292.513,83.4734 293.013,82.4734 293.5,81.5 Z"/></g>
<g><path style="opacity:1" fill="#653a1a" d="M 120.5,84.5 C 123.133,84.6908 125.466,86.0241 127.5,88.5C 127.343,89.8734 127.51,91.2068 128,92.5C 134,95.1667 134,97.8333 128,100.5C 127.505,102.473 127.338,104.473 127.5,106.5C 127.06,104.156 126.06,102.156 124.5,100.5C 125.398,99.8423 126.398,99.1757 127.5,98.5C 126.975,97.8076 126.308,97.3076 125.5,97C 126.308,96.6924 126.975,96.1924 127.5,95.5C 125.763,92.3635 123.097,90.6968 119.5,90.5C 121.013,89.6907 122.68,89.5241 124.5,90C 122.536,88.549 121.203,86.7157 120.5,84.5 Z"/></g>
<g><path style="opacity:1" fill="#e18c3b" d="M 62.5,94.5 C 62.6463,96.9424 61.813,97.6091 60,96.5C 59.5831,97.756 58.7498,98.4226 57.5,98.5C 55.8333,98.5 54.1667,98.5 52.5,98.5C 52.6867,93.9787 55.0201,91.312 59.5,90.5C 60.1497,92.1836 61.1497,93.5169 62.5,94.5 Z"/></g>
<g><path style="opacity:1" fill="#e38939" d="M 134.5,91.5 C 135.391,92.2613 136.058,93.2613 136.5,94.5C 135.551,97.7947 135.551,101.128 136.5,104.5C 135.883,104.389 135.383,104.056 135,103.5C 135.383,105.438 135.216,107.104 134.5,108.5C 132.271,107.423 129.937,106.756 127.5,106.5C 127.338,104.473 127.505,102.473 128,100.5C 134,97.8333 134,95.1667 128,92.5C 127.51,91.2068 127.343,89.8734 127.5,88.5C 129.196,88.3146 130.529,87.4813 131.5,86C 128.23,83.6244 127.064,80.4577 128,76.5C 131.869,80.8914 134.036,85.8914 134.5,91.5 Z"/></g>
<g><path style="opacity:1" fill="#f6fafc" d="M 235.5,50.5 C 245.534,49.5899 255.201,50.9232 264.5,54.5C 272.601,59.7031 278.601,66.7031 282.5,75.5C 282.216,77.4147 282.549,79.0813 283.5,80.5C 284.314,85.1191 284.647,89.7858 284.5,94.5C 283.833,94.5 283.5,94.8333 283.5,95.5C 279.62,113.047 268.954,124.047 251.5,128.5C 243.641,128.873 235.974,127.873 228.5,125.5C 228.158,124.662 227.492,124.328 226.5,124.5C 219.86,120.026 214.36,114.359 210,107.5C 209.667,108.167 209.333,108.833 209,109.5C 207.337,107.842 206.504,105.842 206.5,103.5C 207.222,103.918 207.722,104.584 208,105.5C 208.167,105 208.333,104.5 208.5,104C 204.933,94.6017 204.6,85.1017 207.5,75.5C 209.341,73.1515 210.674,70.4848 211.5,67.5C 217.861,59.4654 225.861,53.7987 235.5,50.5 Z"/></g>
<g><path style="opacity:1" fill="#a6d3e5" d="M 263.5,72.5 C 270.564,82.0778 271.231,92.0778 265.5,102.5C 259.117,111.511 250.451,114.677 239.5,112C 225.826,106.825 220.326,96.9914 223,82.5C 227.721,70.4534 236.554,64.9534 249.5,66C 254.6,67.3855 259.267,69.5521 263.5,72.5 Z"/></g>
<g><path style="opacity:1" fill="#f2fbfc" d="M 240.5,68.5 C 259.525,67.6888 268.025,76.6888 266,95.5C 258.391,110.258 247.224,113.758 232.5,106C 223.868,97.6605 222.368,88.1605 228,77.5C 231.811,73.8324 235.978,70.8324 240.5,68.5 Z"/></g>
<g><path style="opacity:1" fill="#355f96" d="M 243.5,96.5 C 243.5,96.1667 243.5,95.8333 243.5,95.5C 243.5,92.8333 243.5,90.1667 243.5,87.5C 244.5,87.5 245.5,87.5 246.5,87.5C 246.5,90.5 246.5,93.5 246.5,96.5C 245.5,96.5 244.5,96.5 243.5,96.5 Z"/></g>
<g><path style="opacity:1" fill="#87d1e7" d="M 238.5,77.5 C 238.5,79.5 238.5,81.5 238.5,83.5C 239.5,83.5 240.5,83.5 241.5,83.5C 242.167,87.5 242.833,91.5 243.5,95.5C 243.5,95.8333 243.5,96.1667 243.5,96.5C 243.389,98.6477 244.056,98.981 245.5,97.5C 246.606,99.2844 246.606,101.118 245.5,103C 245.836,104.03 246.503,104.53 247.5,104.5C 246.828,105.267 245.995,105.934 245,106.5C 236.432,101.647 232.932,94.314 234.5,84.5C 235.5,84.5 236.5,84.5 237.5,84.5C 237.198,81.9407 237.532,79.6074 238.5,77.5 Z"/></g>
<g><path style="opacity:1" fill="#44487c" d="M 251.5,77.5 C 251.799,79.604 251.466,81.604 250.5,83.5C 249.818,82.7573 249.151,82.0906 248.5,81.5C 248.615,76.6724 246.448,75.3391 242,77.5C 241.506,79.1341 241.34,80.8008 241.5,82.5C 241.5,82.8333 241.5,83.1667 241.5,83.5C 240.5,83.5 239.5,83.5 238.5,83.5C 238.5,81.5 238.5,79.5 238.5,77.5C 241.204,73.4816 244.871,72.4816 249.5,74.5C 250.425,75.3569 251.092,76.3569 251.5,77.5 Z"/></g>
<g><path style="opacity:1" fill="#ebf7fd" d="M 248.5,81.5 C 248.565,81.9382 248.399,82.2716 248,82.5C 245.962,80.2266 243.795,80.2266 241.5,82.5C 241.34,80.8008 241.506,79.1341 242,77.5C 246.448,75.3391 248.615,76.6724 248.5,81.5 Z"/></g>
<g><path style="opacity:1" fill="#d8fbfe" d="M 262.5,65.5 C 264.167,65.5 265.833,65.5 267.5,65.5C 267.662,67.5273 267.495,69.5273 267,71.5C 265.989,72.3366 264.822,72.67 263.5,72.5C 259.267,69.5521 254.6,67.3855 249.5,66C 236.554,64.9534 227.721,70.4534 223,82.5C 220.326,96.9914 225.826,106.825 239.5,112C 250.451,114.677 259.117,111.511 265.5,102.5C 265.5,103.5 265.5,104.5 265.5,105.5C 267.948,105.085 269.281,106.085 269.5,108.5C 269.253,109.713 268.586,110.38 267.5,110.5C 267.5,109.167 267.5,107.833 267.5,106.5C 266.127,106.343 264.793,106.51 263.5,107C 260.885,111.647 256.885,114.314 251.5,115C 235.708,117.022 225.208,110.522 220,95.5C 218.829,72.0069 229.995,61.5069 253.5,64C 255.833,65.1667 258.167,66.3333 260.5,67.5C 261.068,69.4346 262.235,70.7679 264,71.5C 265.5,71.3333 266.333,70.5 266.5,69C 265.653,67.2294 264.32,66.0627 262.5,65.5 Z"/></g>
<g><path style="opacity:1" fill="#d9f4fb" d="M 234.5,62.5 C 216.926,72.7383 212.759,87.0716 222,105.5C 224.984,109.894 228.817,113.227 233.5,115.5C 230.579,115.854 228.246,114.854 226.5,112.5C 225.817,112.863 225.15,113.196 224.5,113.5C 215.798,104.734 212.631,94.0672 215,81.5C 216.52,75.7724 219.52,71.1058 224,67.5C 224.47,66.4232 224.303,65.4232 223.5,64.5C 226.919,62.9133 230.585,62.2467 234.5,62.5 Z"/></g>
<g><path style="opacity:1" fill="#5dc0e1" d="M 251.5,77.5 C 252.468,79.6074 252.802,81.9407 252.5,84.5C 253.833,84.5 255.167,84.5 256.5,84.5C 256.598,90.1088 255.431,95.4422 253,100.5C 251.549,102.464 249.716,103.797 247.5,104.5C 246.503,104.53 245.836,104.03 245.5,103C 246.606,101.118 246.606,99.2844 245.5,97.5C 244.056,98.981 243.389,98.6477 243.5,96.5C 244.5,96.5 245.5,96.5 246.5,96.5C 246.5,93.5 246.5,90.5 246.5,87.5C 245.5,87.5 244.5,87.5 243.5,87.5C 243.5,90.1667 243.5,92.8333 243.5,95.5C 242.833,91.5 242.167,87.5 241.5,83.5C 241.5,83.1667 241.5,82.8333 241.5,82.5C 243.795,80.2266 245.962,80.2266 248,82.5C 248.399,82.2716 248.565,81.9382 248.5,81.5C 249.151,82.0906 249.818,82.7573 250.5,83.5C 251.466,81.604 251.799,79.604 251.5,77.5 Z"/></g>
<g><path style="opacity:1" fill="#5b3215" d="M 55.5,89.5 C 57.2755,89.7938 59.2755,89.9605 61.5,90C 62.3802,91.3561 62.7135,92.8561 62.5,94.5C 61.1497,93.5169 60.1497,92.1836 59.5,90.5C 55.0201,91.312 52.6867,93.9787 52.5,98.5C 54.1667,98.5 55.8333,98.5 57.5,98.5C 57.5,98.8333 57.5,99.1667 57.5,99.5C 56.1779,99.33 55.0113,99.6634 54,100.5C 53.8091,102.708 53.3091,104.708 52.5,106.5C 52.6633,104.143 52.4966,101.81 52,99.5C 51.2496,98.8742 50.4162,98.3742 49.5,98C 50.464,96.2745 51.1307,94.4412 51.5,92.5C 53.4305,92.2294 54.7638,91.2294 55.5,89.5 Z"/></g>
<g><path style="opacity:1" fill="#ce9350" d="M 119.5,90.5 C 123.097,90.6968 125.763,92.3635 127.5,95.5C 126.975,96.1924 126.308,96.6924 125.5,97C 126.308,97.3076 126.975,97.8076 127.5,98.5C 126.398,99.1757 125.398,99.8423 124.5,100.5C 123.833,100.5 123.167,100.5 122.5,100.5C 121.493,100.452 121.16,101.452 121.5,103.5C 119.435,103.483 117.435,103.15 115.5,102.5C 116.568,101.566 117.901,101.232 119.5,101.5C 119.263,100.209 119.596,99.209 120.5,98.5C 126.169,95.2027 125.835,93.2027 119.5,92.5C 119.5,91.8333 119.5,91.1667 119.5,90.5 Z"/></g>
<g><path style="opacity:1" fill="#302823" d="M 107.5,92.5 C 108.167,92.5 108.833,92.5 109.5,92.5C 109.893,94.2838 110.559,95.9505 111.5,97.5C 110.153,98.1712 108.986,98.1712 108,97.5C 107.536,98.0944 107.369,98.7611 107.5,99.5C 106.833,98.8333 106.167,98.1667 105.5,97.5C 105.5,97.1667 105.5,96.8333 105.5,96.5C 106.404,95.791 106.737,94.791 106.5,93.5C 107.167,93.5 107.5,93.1667 107.5,92.5 Z"/></g>
<g><path style="opacity:1" fill="#e8e1dd" d="M 73.5,93.5 C 84.5,93.5 95.5,93.5 106.5,93.5C 106.737,94.791 106.404,95.791 105.5,96.5C 95.1667,96.5 84.8333,96.5 74.5,96.5C 73.596,95.791 73.2627,94.791 73.5,93.5 Z"/></g>
<g><path style="opacity:1" fill="#ec8f2c" d="M 119.5,92.5 C 125.835,93.2027 126.169,95.2027 120.5,98.5C 119.85,96.5648 119.517,94.5648 119.5,92.5 Z"/></g>
<g><path style="opacity:1" fill="#467759" d="M 74.5,96.5 C 84.8333,96.5 95.1667,96.5 105.5,96.5C 105.5,96.8333 105.5,97.1667 105.5,97.5C 95.5,97.5 85.5,97.5 75.5,97.5C 77.1149,101.063 78.4483,104.73 79.5,108.5C 78.8333,108.167 78.1667,107.833 77.5,107.5C 77.6716,106.508 77.3382,105.842 76.5,105.5C 76.0825,104.778 75.4158,104.278 74.5,104C 75.7119,102.893 75.3786,102.393 73.5,102.5C 73.5,101.833 73.5,101.167 73.5,100.5C 73.4326,99.0413 73.7659,97.7079 74.5,96.5 Z"/></g>
<g><path style="opacity:1" fill="#714824" d="M 134.5,83.5 C 135.747,88.3097 137.414,92.9764 139.5,97.5C 139.389,98.1174 139.056,98.6174 138.5,99C 140.478,101.015 142.312,100.848 144,98.5C 144.495,96.5273 144.662,94.5273 144.5,92.5C 147.088,95.4161 146.754,98.2494 143.5,101C 138.614,100.383 136.947,102.216 138.5,106.5C 137.167,106.5 136.5,105.833 136.5,104.5C 135.551,101.128 135.551,97.7947 136.5,94.5C 136.058,93.2613 135.391,92.2613 134.5,91.5C 134.5,88.8333 134.5,86.1667 134.5,83.5 Z"/></g>
<g><path style="opacity:1" fill="#315c70" d="M 199.5,99.5 C 197.801,99.6602 196.134,99.4935 194.5,99C 195.5,98.6667 196.5,98.3333 197.5,98C 194.598,97.0814 194.265,96.2481 196.5,95.5C 196.81,96.7383 197.31,96.7383 198,95.5C 198.085,93.9154 198.251,92.5821 198.5,91.5C 199.76,93.3529 199.76,95.1862 198.5,97C 200.619,97.3418 200.953,98.1751 199.5,99.5 Z"/></g>
<g><path style="opacity:1" fill="#454079" d="M 223.5,64.5 C 224.303,65.4232 224.47,66.4232 224,67.5C 219.52,71.1058 216.52,75.7724 215,81.5C 212.631,94.0672 215.798,104.734 224.5,113.5C 223.262,114.412 221.928,114.579 220.5,114C 215.237,106.714 212.237,98.5478 211.5,89.5C 211.561,86.0974 212.061,82.7641 213,79.5C 215.349,74.8022 217.682,70.1356 220,65.5C 221.011,64.6634 222.178,64.33 223.5,64.5 Z"/></g>
<g><path style="opacity:1" fill="#c1e2ed" d="M 283.5,103.5 C 284.497,100.672 284.497,98.005 283.5,95.5C 283.5,94.8333 283.833,94.5 284.5,94.5C 285.162,92.6965 285.495,90.6965 285.5,88.5C 285.824,84.164 285.157,81.4973 283.5,80.5C 282.549,79.0813 282.216,77.4147 282.5,75.5C 282.414,73.323 281.747,71.323 280.5,69.5C 281,68.5 281.5,67.5 282,66.5C 282.871,70.984 284.204,75.3173 286,79.5C 286.257,85.1964 286.757,90.8631 287.5,96.5C 286.409,99.0215 285.075,101.355 283.5,103.5 Z"/></g>
<g><path style="opacity:1" fill="#c27b38" d="M 48.5,81.5 C 48.4142,82.4959 48.7476,83.3292 49.5,84C 46.735,88.4381 45.5683,93.2714 46,98.5C 47.331,96.0038 49.1644,94.0038 51.5,92.5C 51.1307,94.4412 50.464,96.2745 49.5,98C 50.4162,98.3742 51.2496,98.8742 52,99.5C 52.4966,101.81 52.6633,104.143 52.5,106.5C 49.5641,107.406 46.5641,108.072 43.5,108.5C 43.875,103.033 44.2084,97.366 44.5,91.5C 44.1984,88.9407 44.5318,86.6074 45.5,84.5C 46.2719,83.3065 47.2719,82.3065 48.5,81.5 Z"/></g>
<g><path style="opacity:1" fill="#04a54e" d="M 102.5,102.5 C 100.915,103.533 99.5812,104.866 98.5,106.5C 95.3138,106.895 92.3138,107.895 89.5,109.5C 88.0241,107.429 86.0241,106.429 83.5,106.5C 83.5,105.5 83.5,104.5 83.5,103.5C 82.1266,103.657 80.7932,103.49 79.5,103C 78.1667,102 78.1667,101 79.5,100C 87.1594,99.5003 94.8261,99.3336 102.5,99.5C 102.5,100.5 102.5,101.5 102.5,102.5 Z"/></g>
<g><path style="opacity:1" fill="#af754a" d="M 119.5,90.5 C 119.5,91.1667 119.5,91.8333 119.5,92.5C 119.517,94.5648 119.85,96.5648 120.5,98.5C 119.596,99.209 119.263,100.209 119.5,101.5C 117.901,101.232 116.568,101.566 115.5,102.5C 114.833,102.5 114.5,102.833 114.5,103.5C 112.958,102.699 111.292,102.366 109.5,102.5C 109.068,101.29 108.401,100.29 107.5,99.5C 107.369,98.7611 107.536,98.0944 108,97.5C 108.986,98.1712 110.153,98.1712 111.5,97.5C 113.167,97.5 114.833,97.5 116.5,97.5C 116.552,94.6538 117.552,92.3204 119.5,90.5 Z"/></g>
<g><path style="opacity:1" fill="#8790a3" d="M 207.5,75.5 C 204.6,85.1017 204.933,94.6017 208.5,104C 208.333,104.5 208.167,105 208,105.5C 207.722,104.584 207.222,103.918 206.5,103.5C 205.195,98.9394 204.528,94.2728 204.5,89.5C 204.267,84.4483 205.267,79.7816 207.5,75.5 Z"/></g>
<g><path style="opacity:1" fill="#ea8e30" d="M 46.5,99.5 C 50.0091,99.8079 51.6757,101.808 51.5,105.5C 49.4588,105.854 47.6255,105.854 46,105.5C 46.1349,103.575 46.3016,101.575 46.5,99.5 Z"/></g>
<g><path style="opacity:1" fill="#b6773c" d="M 62.5,94.5 C 63.404,95.209 63.7373,96.209 63.5,97.5C 65.1667,97.5 66.8333,97.5 68.5,97.5C 71.5225,97.1052 72.5225,98.1052 71.5,100.5C 67.0559,101.413 62.7226,102.413 58.5,103.5C 57.5655,102.432 57.2322,101.099 57.5,99.5C 57.5,99.1667 57.5,98.8333 57.5,98.5C 58.7498,98.4226 59.5831,97.756 60,96.5C 61.813,97.6091 62.6463,96.9424 62.5,94.5 Z"/></g>
<g><path style="opacity:1" fill="#f7f3f2" d="M 73.5,100.5 C 73.5,101.167 73.5,101.833 73.5,102.5C 72.8254,104.518 71.6587,106.184 70,107.5C 68.073,106.139 65.9063,105.306 63.5,105C 66.8548,103.401 70.1882,101.901 73.5,100.5 Z"/></g>
<g><path style="opacity:1" fill="#321c15" d="M 107.5,99.5 C 108.401,100.29 109.068,101.29 109.5,102.5C 110.512,103.872 111.512,105.205 112.5,106.5C 112.951,109.101 111.618,110.768 108.5,111.5C 108.511,109.983 109.177,108.816 110.5,108C 109.383,106.108 107.716,105.275 105.5,105.5C 106.942,104.18 107.608,102.514 107.5,100.5C 107.5,100.167 107.5,99.8333 107.5,99.5 Z"/></g>
<g><path style="opacity:1" fill="#2a536a" d="M 200.5,101.5 C 201.167,101.5 201.5,101.833 201.5,102.5C 199.46,103.519 197.46,103.519 195.5,102.5C 196.718,102.891 197.552,102.224 198,100.5C 198.671,101.252 199.504,101.586 200.5,101.5 Z"/></g>
<g><path style="opacity:1" fill="#456f86" d="M 291.5,92.5 C 297.658,94.1512 297.991,96.6512 292.5,100C 295.028,101.017 295.028,102.184 292.5,103.5C 293.025,104.192 293.692,104.692 294.5,105C 292.316,105.442 290.316,104.942 288.5,103.5C 289.417,102.029 290.417,100.529 291.5,99C 289.069,96.8938 289.069,94.7272 291.5,92.5 Z"/></g>
<g><path style="opacity:1" fill="#a7cee2" d="M 291.5,94.5 C 292.5,94.5 293.5,94.5 294.5,94.5C 294.5,95.5 294.5,96.5 294.5,97.5C 293.5,97.5 292.5,97.5 291.5,97.5C 291.5,96.5 291.5,95.5 291.5,94.5 Z"/></g>
<g><path style="opacity:1" fill="#efeded" d="M 57.5,99.5 C 57.2322,101.099 57.5655,102.432 58.5,103.5C 59.6005,104.605 60.2671,105.938 60.5,107.5C 57.6356,109.023 55.969,111.357 55.5,114.5C 53.7376,114.643 52.0709,114.309 50.5,113.5C 48.4024,113.957 46.7358,114.957 45.5,116.5C 44.3509,116.209 43.6842,115.376 43.5,114C 43.2776,111.725 44.2776,110.559 46.5,110.5C 48.8816,109.649 50.8816,108.316 52.5,106.5C 53.3091,104.708 53.8091,102.708 54,100.5C 55.0113,99.6634 56.1779,99.33 57.5,99.5 Z"/></g>
<g><path style="opacity:1" fill="#573d2e" d="M 122.5,100.5 C 122.714,102.144 122.38,103.644 121.5,105C 118.905,105.6 116.571,105.1 114.5,103.5C 114.5,102.833 114.833,102.5 115.5,102.5C 117.435,103.15 119.435,103.483 121.5,103.5C 121.16,101.452 121.493,100.452 122.5,100.5 Z"/></g>
<g><path style="opacity:1" fill="#42302b" d="M 70.5,89.5 C 70.8333,89.5 71.1667,89.5 71.5,89.5C 71.5,90.5 71.5,91.5 71.5,92.5C 71.8417,93.3382 72.5084,93.6716 73.5,93.5C 73.2627,94.791 73.596,95.791 74.5,96.5C 73.7659,97.7079 73.4326,99.0413 73.5,100.5C 70.1882,101.901 66.8548,103.401 63.5,105C 65.9063,105.306 68.073,106.139 70,107.5C 71.6587,106.184 72.8254,104.518 73.5,102.5C 75.3786,102.393 75.7119,102.893 74.5,104C 75.4158,104.278 76.0825,104.778 76.5,105.5C 75.7439,108.394 74.0772,110.394 71.5,111.5C 70.8333,111.5 70.1667,111.5 69.5,111.5C 69.1667,111.5 68.8333,111.5 68.5,111.5C 66.5,111.5 64.5,111.5 62.5,111.5C 62.1667,111.5 61.8333,111.5 61.5,111.5C 61.5,111.167 61.5,110.833 61.5,110.5C 60.596,109.791 60.2627,108.791 60.5,107.5C 60.2671,105.938 59.6005,104.605 58.5,103.5C 62.7226,102.413 67.0559,101.413 71.5,100.5C 72.5225,98.1052 71.5225,97.1052 68.5,97.5C 70.0507,95.0872 70.7174,92.4206 70.5,89.5 Z"/></g>
<g><path style="opacity:1" fill="#f3f0e7" d="M 122.5,100.5 C 123.167,100.5 123.833,100.5 124.5,100.5C 126.06,102.156 127.06,104.156 127.5,106.5C 128.659,108.25 130.326,109.25 132.5,109.5C 133.568,110.434 134.901,110.768 136.5,110.5C 136.5,111.833 136.5,113.167 136.5,114.5C 133.214,115.207 129.881,115.54 126.5,115.5C 129.322,114.493 132.322,113.66 135.5,113C 134.975,112.308 134.308,111.808 133.5,111.5C 132.059,112.304 130.559,112.971 129,113.5C 126.88,112.541 124.713,112.374 122.5,113C 123.167,113.333 123.833,113.667 124.5,114C 124.272,114.399 123.938,114.565 123.5,114.5C 121.612,112.262 119.612,109.929 117.5,107.5C 115.929,106.691 114.262,106.357 112.5,106.5C 111.512,105.205 110.512,103.872 109.5,102.5C 111.292,102.366 112.958,102.699 114.5,103.5C 116.571,105.1 118.905,105.6 121.5,105C 122.38,103.644 122.714,102.144 122.5,100.5 Z"/></g>
<g><path style="opacity:1" fill="#129e56" d="M 105.5,97.5 C 104.144,98.9688 103.144,100.635 102.5,102.5C 102.5,101.5 102.5,100.5 102.5,99.5C 94.8261,99.3336 87.1594,99.5003 79.5,100C 78.1667,101 78.1667,102 79.5,103C 80.7932,103.49 82.1266,103.657 83.5,103.5C 83.5,104.5 83.5,105.5 83.5,106.5C 86.0241,106.429 88.0241,107.429 89.5,109.5C 92.3138,107.895 95.3138,106.895 98.5,106.5C 99.8878,109.009 99.0544,110.676 96,111.5C 95.5172,112.448 95.3505,113.448 95.5,114.5C 95.1667,115.5 94.5,116.167 93.5,116.5C 91.1868,116.907 88.8535,116.24 86.5,114.5C 84.5741,111.928 82.2407,109.928 79.5,108.5C 78.4483,104.73 77.1149,101.063 75.5,97.5C 85.5,97.5 95.5,97.5 105.5,97.5 Z"/></g>
<g><path style="opacity:1" fill="#5ca070" d="M 105.5,97.5 C 106.167,98.1667 106.833,98.8333 107.5,99.5C 107.5,99.8333 107.5,100.167 107.5,100.5C 103.926,105.416 99.9265,110.083 95.5,114.5C 95.3505,113.448 95.5172,112.448 96,111.5C 99.0544,110.676 99.8878,109.009 98.5,106.5C 99.5812,104.866 100.915,103.533 102.5,102.5C 103.144,100.635 104.144,98.9688 105.5,97.5 Z"/></g>
<g><path style="opacity:1" fill="#abc0cd" d="M 283.5,95.5 C 284.497,98.005 284.497,100.672 283.5,103.5C 283.122,105.921 282.455,108.254 281.5,110.5C 277.196,113.809 273.529,117.809 270.5,122.5C 266.036,126.067 261.369,128.4 256.5,129.5C 255.081,128.549 253.415,128.216 251.5,128.5C 268.954,124.047 279.62,113.047 283.5,95.5 Z"/></g>
<g><path style="opacity:1" fill="#803642" d="M 76.5,105.5 C 77.3382,105.842 77.6716,106.508 77.5,107.5C 76.0664,110.047 74.3998,112.381 72.5,114.5C 71.596,113.791 71.2627,112.791 71.5,111.5C 74.0772,110.394 75.7439,108.394 76.5,105.5 Z"/></g>
<g><path style="opacity:1" fill="#9c6c3a" d="M 44.5,91.5 C 44.2084,97.366 43.875,103.033 43.5,108.5C 46.5641,108.072 49.5641,107.406 52.5,106.5C 50.8816,108.316 48.8816,109.649 46.5,110.5C 45.4324,109.566 44.099,109.232 42.5,109.5C 42.2601,112.579 42.5934,115.579 43.5,118.5C 42.635,119.583 41.635,119.749 40.5,119C 39.8333,116 39.1667,113 38.5,110C 38.6191,108.855 38.9524,107.688 39.5,106.5C 40.209,105.596 41.209,105.263 42.5,105.5C 42.5,104.167 42.5,102.833 42.5,101.5C 41.7699,99.9938 41.4366,98.6605 41.5,97.5C 41.9925,95.1815 42.9925,93.1815 44.5,91.5 Z"/></g>
<g><path style="opacity:1" fill="#a84d4e" d="M 61.5,110.5 C 61.5,109.5 61.5,108.5 61.5,107.5C 62.5,107.5 63.5,107.5 64.5,107.5C 64.5,108.5 64.5,109.5 64.5,110.5C 63.5,110.5 62.5,110.5 61.5,110.5 Z"/></g>
<g><path style="opacity:1" fill="#b17337" d="M 136.5,104.5 C 136.5,105.833 137.167,106.5 138.5,106.5C 139.209,107.404 140.209,107.737 141.5,107.5C 141.5,108.833 141.5,110.167 141.5,111.5C 140.5,111.5 139.5,111.5 138.5,111.5C 138.519,113.06 138.852,114.56 139.5,116C 139.361,117.301 138.695,118.134 137.5,118.5C 137.5,115.5 137.5,112.5 137.5,109.5C 135.833,109.5 134.167,109.5 132.5,109.5C 130.326,109.25 128.659,108.25 127.5,106.5C 129.937,106.756 132.271,107.423 134.5,108.5C 135.216,107.104 135.383,105.438 135,103.5C 135.383,104.056 135.883,104.389 136.5,104.5 Z"/></g>
<g><path style="opacity:1" fill="#40a2c2" d="M 262.5,65.5 C 264.32,66.0627 265.653,67.2294 266.5,69C 266.333,70.5 265.5,71.3333 264,71.5C 262.235,70.7679 261.068,69.4346 260.5,67.5C 258.167,66.3333 255.833,65.1667 253.5,64C 229.995,61.5069 218.829,72.0069 220,95.5C 225.208,110.522 235.708,117.022 251.5,115C 256.885,114.314 260.885,111.647 263.5,107C 264.793,106.51 266.127,106.343 267.5,106.5C 267.5,107.833 267.5,109.167 267.5,110.5C 262.746,112.376 258.079,114.542 253.5,117C 246.661,117.99 239.995,117.49 233.5,115.5C 228.817,113.227 224.984,109.894 222,105.5C 212.759,87.0716 216.926,72.7383 234.5,62.5C 244.235,59.4071 253.568,60.4071 262.5,65.5 Z"/></g>
<g><path style="opacity:1" fill="#262f18" d="M 107.5,100.5 C 107.608,102.514 106.942,104.18 105.5,105.5C 103.72,106.99 103.054,108.99 103.5,111.5C 102.833,112.833 102.167,114.167 101.5,115.5C 101.013,114.527 100.513,113.527 100,112.5C 98.6814,114.25 98.1814,116.25 98.5,118.5C 96.4471,118.402 94.7804,119.069 93.5,120.5C 92.8333,120.167 92.1667,119.833 91.5,119.5C 92.1667,118.5 92.8333,117.5 93.5,116.5C 94.5,116.167 95.1667,115.5 95.5,114.5C 99.9265,110.083 103.926,105.416 107.5,100.5 Z"/></g>
<g><path style="opacity:1" fill="#6e272b" d="M 105.5,105.5 C 107.716,105.275 109.383,106.108 110.5,108C 109.177,108.816 108.511,109.983 108.5,111.5C 108.328,112.492 108.662,113.158 109.5,113.5C 108.194,114.467 107.527,115.801 107.5,117.5C 106.167,115.5 104.833,113.5 103.5,111.5C 103.054,108.99 103.72,106.99 105.5,105.5 Z"/></g>
<g><path style="opacity:1" fill="#242d1d" d="M 112.5,106.5 C 114.262,106.357 115.929,106.691 117.5,107.5C 119.612,109.929 121.612,112.262 123.5,114.5C 124.209,115.404 125.209,115.737 126.5,115.5C 129.881,115.54 133.214,115.207 136.5,114.5C 136.5,113.167 136.5,111.833 136.5,110.5C 134.901,110.768 133.568,110.434 132.5,109.5C 134.167,109.5 135.833,109.5 137.5,109.5C 137.5,112.5 137.5,115.5 137.5,118.5C 136.833,118.833 136.167,119.167 135.5,119.5C 135.167,119.5 134.833,119.5 134.5,119.5C 134.389,118.883 134.056,118.383 133.5,118C 126.374,118.188 120.207,116.021 115,111.5C 113.092,111.715 111.926,112.715 111.5,114.5C 110.833,114.167 110.167,113.833 109.5,113.5C 108.662,113.158 108.328,112.492 108.5,111.5C 111.618,110.768 112.951,109.101 112.5,106.5 Z"/></g>
<g><path style="opacity:1" fill="#7a7c73" d="M 126.5,115.5 C 125.209,115.737 124.209,115.404 123.5,114.5C 123.938,114.565 124.272,114.399 124.5,114C 123.833,113.667 123.167,113.333 122.5,113C 124.713,112.374 126.88,112.541 129,113.5C 130.559,112.971 132.059,112.304 133.5,111.5C 134.308,111.808 134.975,112.308 135.5,113C 132.322,113.66 129.322,114.493 126.5,115.5 Z"/></g>
<g><path style="opacity:1" fill="#466b7e" d="M 291.5,112.5 C 290.518,113.141 289.518,113.807 288.5,114.5C 287.3,113.469 285.966,112.635 284.5,112C 285.252,111.329 285.586,110.496 285.5,109.5C 286.998,104.857 289.665,104.191 293.5,107.5C 292.412,111.386 291.579,111.386 291,107.5C 290.5,108.667 289.667,109.5 288.5,110C 289.942,110.377 290.942,111.21 291.5,112.5 Z"/></g>
<g><path style="opacity:1" fill="#406985" d="M 201.5,105.5 C 202.782,107.264 203.782,109.597 204.5,112.5C 202.802,115.124 200.969,115.124 199,112.5C 198.289,110.633 198.789,109.133 200.5,108C 199.062,107.781 197.729,107.281 196.5,106.5C 197.718,106.891 198.552,106.224 199,104.5C 199.671,105.252 200.504,105.586 201.5,105.5 Z"/></g>
<g><path style="opacity:1" fill="#2c7648" d="M 68.5,111.5 C 68.8333,111.5 69.1667,111.5 69.5,111.5C 69.7896,114.785 69.123,117.785 67.5,120.5C 65.9748,121.389 64.9748,120.722 64.5,118.5C 65.5572,115.923 66.8905,113.59 68.5,111.5 Z"/></g>
<g><path style="opacity:1" fill="#202a18" d="M 77.5,107.5 C 78.1667,107.833 78.8333,108.167 79.5,108.5C 82.0985,112.438 85.0985,116.105 88.5,119.5C 87.6618,119.842 87.3284,120.508 87.5,121.5C 86.9694,124.779 84.9694,126.113 81.5,125.5C 82.8083,124.768 84.1416,123.934 85.5,123C 84.5,121.333 83.5,119.667 82.5,118C 81.552,117.517 80.552,117.351 79.5,117.5C 79.719,116.325 79.3857,115.325 78.5,114.5C 77.6667,115.5 76.8333,116.5 76,117.5C 74.9887,116.663 73.8221,116.33 72.5,116.5C 72.5,115.833 72.5,115.167 72.5,114.5C 74.3998,112.381 76.0664,110.047 77.5,107.5 Z"/></g>
<g><path style="opacity:1" fill="#222f1e" d="M 60.5,107.5 C 60.2627,108.791 60.596,109.791 61.5,110.5C 61.5,110.833 61.5,111.167 61.5,111.5C 59.1637,113.618 59.4971,115.618 62.5,117.5C 64.9994,115.604 64.9994,113.604 62.5,111.5C 64.5,111.5 66.5,111.5 68.5,111.5C 66.8905,113.59 65.5572,115.923 64.5,118.5C 64.1667,118.5 63.8333,118.5 63.5,118.5C 59.7053,117.959 57.7053,119.625 57.5,123.5C 56.2638,124.246 54.9305,124.579 53.5,124.5C 57.5887,122.839 58.2554,120.339 55.5,117C 54.8333,116.333 54.1667,116.333 53.5,117C 51.7982,118.592 50.1316,120.092 48.5,121.5C 48.6107,120.883 48.944,120.383 49.5,120C 48.3946,118.414 47.0612,117.248 45.5,116.5C 46.7358,114.957 48.4024,113.957 50.5,113.5C 52.0709,114.309 53.7376,114.643 55.5,114.5C 55.969,111.357 57.6356,109.023 60.5,107.5 Z"/></g>
<g><path style="opacity:1" fill="#257146" d="M 61.5,111.5 C 61.8333,111.5 62.1667,111.5 62.5,111.5C 64.9994,113.604 64.9994,115.604 62.5,117.5C 59.4971,115.618 59.1637,113.618 61.5,111.5 Z"/></g>
<g><path style="opacity:1" fill="#579467" d="M 79.5,108.5 C 82.2407,109.928 84.5741,111.928 86.5,114.5C 88.8535,116.24 91.1868,116.907 93.5,116.5C 92.8333,117.5 92.1667,118.5 91.5,119.5C 90.5,119.5 89.5,119.5 88.5,119.5C 85.0985,116.105 82.0985,112.438 79.5,108.5 Z"/></g>
<g><path style="opacity:1" fill="#99754b" d="M 101.5,115.5 C 101.5,117.5 101.5,119.5 101.5,121.5C 100.5,121.5 99.5,121.5 98.5,121.5C 98.5,120.5 98.5,119.5 98.5,118.5C 98.1814,116.25 98.6814,114.25 100,112.5C 100.513,113.527 101.013,114.527 101.5,115.5 Z"/></g>
<g><path style="opacity:1" fill="#815733" d="M 138.5,106.5 C 139.833,106.5 141.167,106.5 142.5,106.5C 142.16,111.89 141.493,117.223 140.5,122.5C 139.5,122.5 138.5,122.5 137.5,122.5C 136.833,122.5 136.167,122.5 135.5,122.5C 135.5,121.5 135.5,120.5 135.5,119.5C 136.167,119.167 136.833,118.833 137.5,118.5C 138.695,118.134 139.361,117.301 139.5,116C 138.852,114.56 138.519,113.06 138.5,111.5C 139.5,111.5 140.5,111.5 141.5,111.5C 141.5,110.167 141.5,108.833 141.5,107.5C 140.209,107.737 139.209,107.404 138.5,106.5 Z"/></g>
<g><path style="opacity:1" fill="#424330" d="M 69.5,111.5 C 70.1667,111.5 70.8333,111.5 71.5,111.5C 71.2627,112.791 71.596,113.791 72.5,114.5C 72.5,115.167 72.5,115.833 72.5,116.5C 71.0687,117.78 70.4021,119.447 70.5,121.5C 71.5,121.5 72.5,121.5 73.5,121.5C 73.5,122.833 73.5,124.167 73.5,125.5C 76.1667,125.5 78.8333,125.5 81.5,125.5C 81.5,126.167 81.1667,126.5 80.5,126.5C 79.0413,126.433 77.7079,126.766 76.5,127.5C 74.7085,127.634 73.0418,127.301 71.5,126.5C 71.3155,123.663 69.9822,121.663 67.5,120.5C 69.123,117.785 69.7896,114.785 69.5,111.5 Z"/></g>
<g><path style="opacity:1" fill="#513d27" d="M 39.5,106.5 C 38.9524,107.688 38.6191,108.855 38.5,110C 39.1667,113 39.8333,116 40.5,119C 41.635,119.749 42.635,119.583 43.5,118.5C 42.5934,115.579 42.2601,112.579 42.5,109.5C 44.099,109.232 45.4324,109.566 46.5,110.5C 44.2776,110.559 43.2776,111.725 43.5,114C 43.6842,115.376 44.3509,116.209 45.5,116.5C 47.0612,117.248 48.3946,118.414 49.5,120C 48.944,120.383 48.6107,120.883 48.5,121.5C 47.8333,121.5 47.5,121.833 47.5,122.5C 44.7628,122.599 42.0961,122.265 39.5,121.5C 38.7271,117.398 38.0604,113.231 37.5,109C 37.6842,107.624 38.3509,106.791 39.5,106.5 Z"/></g>
<g><path style="opacity:1" fill="#295936" d="M 53.5,124.5 C 52.8333,124.5 52.1667,124.5 51.5,124.5C 49.5168,124.843 48.1834,124.176 47.5,122.5C 47.5,121.833 47.8333,121.5 48.5,121.5C 50.1316,120.092 51.7982,118.592 53.5,117C 54.1667,116.333 54.8333,116.333 55.5,117C 58.2554,120.339 57.5887,122.839 53.5,124.5 Z"/></g>
<g><path style="opacity:1" fill="#1f7546" d="M 81.5,125.5 C 78.8333,125.5 76.1667,125.5 73.5,125.5C 73.5,124.167 73.5,122.833 73.5,121.5C 72.5,121.5 71.5,121.5 70.5,121.5C 70.4021,119.447 71.0687,117.78 72.5,116.5C 73.8221,116.33 74.9887,116.663 76,117.5C 76.8333,116.5 77.6667,115.5 78.5,114.5C 79.3857,115.325 79.719,116.325 79.5,117.5C 80.552,117.351 81.552,117.517 82.5,118C 83.5,119.667 84.5,121.333 85.5,123C 84.1416,123.934 82.8083,124.768 81.5,125.5 Z"/></g>
<g><path style="opacity:1" fill="#246640" d="M 134.5,119.5 C 134.179,121.048 133.179,121.715 131.5,121.5C 126.338,121.306 121.338,121.306 116.5,121.5C 114.627,121.518 114.294,121.018 115.5,120C 114.897,117.929 113.564,116.762 111.5,116.5C 111.5,115.833 111.5,115.167 111.5,114.5C 111.926,112.715 113.092,111.715 115,111.5C 120.207,116.021 126.374,118.188 133.5,118C 134.056,118.383 134.389,118.883 134.5,119.5 Z"/></g>
<g><path style="opacity:1" fill="#97523b" d="M 109.5,113.5 C 110.167,113.833 110.833,114.167 111.5,114.5C 111.5,115.167 111.5,115.833 111.5,116.5C 111.5,117.5 111.5,118.5 111.5,119.5C 111.167,120.167 110.833,120.833 110.5,121.5C 109.833,121.5 109.167,121.5 108.5,121.5C 107.766,120.292 107.433,118.959 107.5,117.5C 107.527,115.801 108.194,114.467 109.5,113.5 Z"/></g>
<g><path style="opacity:1" fill="#673e26" d="M 63.5,118.5 C 63.8333,118.5 64.1667,118.5 64.5,118.5C 64.9748,120.722 65.9748,121.389 67.5,120.5C 69.9822,121.663 71.3155,123.663 71.5,126.5C 70.4324,127.434 69.099,127.768 67.5,127.5C 67.5,125.833 67.5,124.167 67.5,122.5C 64.858,122.512 63.5246,121.179 63.5,118.5 Z"/></g>
<g><path style="opacity:1" fill="#202e19" d="M 111.5,116.5 C 113.564,116.762 114.897,117.929 115.5,120C 114.294,121.018 114.627,121.518 116.5,121.5C 121.338,121.306 126.338,121.306 131.5,121.5C 131.389,122.117 131.056,122.617 130.5,123C 123.53,124.306 117.197,123.14 111.5,119.5C 111.5,118.5 111.5,117.5 111.5,116.5 Z"/></g>
<g><path style="opacity:1" fill="#5e703a" d="M 103.5,111.5 C 104.833,113.5 106.167,115.5 107.5,117.5C 107.433,118.959 107.766,120.292 108.5,121.5C 109.625,122.652 109.625,123.652 108.5,124.5C 107.791,123.596 106.791,123.263 105.5,123.5C 105.639,114.221 104.306,113.554 101.5,121.5C 101.5,119.5 101.5,117.5 101.5,115.5C 102.167,114.167 102.833,112.833 103.5,111.5 Z"/></g>
<g><path style="opacity:1" fill="#e3fef1" d="M 161.5,111.5 C 163.607,110.532 165.941,110.198 168.5,110.5C 168.667,123.837 168.5,137.171 168,150.5C 165.726,151.811 163.56,151.811 161.5,150.5C 163.167,150.5 164.833,150.5 166.5,150.5C 166.5,137.5 166.5,124.5 166.5,111.5C 164.833,111.5 163.167,111.5 161.5,111.5 Z"/></g>
<g><path style="opacity:1" fill="#35733f" d="M 108.5,124.5 C 108.539,125.756 108.039,126.756 107,127.5C 104.699,126.133 102.199,125.466 99.5,125.5C 98.8333,124.833 98.1667,124.167 97.5,123.5C 96.5525,122.022 95.2191,121.022 93.5,120.5C 94.7804,119.069 96.4471,118.402 98.5,118.5C 98.5,119.5 98.5,120.5 98.5,121.5C 99.5,121.5 100.5,121.5 101.5,121.5C 104.306,113.554 105.639,114.221 105.5,123.5C 106.791,123.263 107.791,123.596 108.5,124.5 Z"/></g>
<g><path style="opacity:1" fill="#2c1c14" d="M 39.5,121.5 C 42.0961,122.265 44.7628,122.599 47.5,122.5C 48.1834,124.176 49.5168,124.843 51.5,124.5C 46.9379,127.517 42.9379,126.851 39.5,122.5C 39.5,122.167 39.5,121.833 39.5,121.5 Z"/></g>
<g><path style="opacity:1" fill="#86292f" d="M 88.5,119.5 C 89.5,119.5 90.5,119.5 91.5,119.5C 92.1667,119.833 92.8333,120.167 93.5,120.5C 95.2191,121.022 96.5525,122.022 97.5,123.5C 97.5,124.5 97.5,125.5 97.5,126.5C 96.5178,127.141 95.5178,127.807 94.5,128.5C 93.7348,127.388 92.7348,126.721 91.5,126.5C 90.2921,127.234 88.9587,127.567 87.5,127.5C 86.8333,127.5 86.5,127.167 86.5,126.5C 88.0418,125.699 89.7085,125.366 91.5,125.5C 91.5,124.5 91.5,123.5 91.5,122.5C 90.0413,122.567 88.7079,122.234 87.5,121.5C 87.3284,120.508 87.6618,119.842 88.5,119.5 Z"/></g>
<g><path style="opacity:1" fill="#353721" d="M 108.5,121.5 C 109.167,121.5 109.833,121.5 110.5,121.5C 111.043,121.56 111.376,121.893 111.5,122.5C 110.828,124.53 110.162,126.53 109.5,128.5C 109.167,128.5 108.833,128.5 108.5,128.5C 107.833,128.5 107.167,128.5 106.5,128.5C 105.833,128.5 105.167,128.5 104.5,128.5C 103.791,127.596 102.791,127.263 101.5,127.5C 100.833,126.833 100.167,126.167 99.5,125.5C 102.199,125.466 104.699,126.133 107,127.5C 108.039,126.756 108.539,125.756 108.5,124.5C 109.625,123.652 109.625,122.652 108.5,121.5 Z"/></g>
<g><path style="opacity:1" fill="#5b2c28" d="M 87.5,121.5 C 88.7079,122.234 90.0413,122.567 91.5,122.5C 91.5,123.5 91.5,124.5 91.5,125.5C 89.7085,125.366 88.0418,125.699 86.5,126.5C 85.6618,126.842 85.3284,127.508 85.5,128.5C 82.9741,131.063 81.3074,130.397 80.5,126.5C 81.1667,126.5 81.5,126.167 81.5,125.5C 84.9694,126.113 86.9694,124.779 87.5,121.5 Z"/></g>
<g><path style="opacity:1" fill="#6e2829" d="M 63.5,118.5 C 63.5246,121.179 64.858,122.512 67.5,122.5C 67.5,124.167 67.5,125.833 67.5,127.5C 69.099,127.768 70.4324,127.434 71.5,126.5C 73.0418,127.301 74.7085,127.634 76.5,127.5C 76.8333,128.167 77.1667,128.833 77.5,129.5C 76.5084,129.328 75.8417,129.662 75.5,130.5C 72.6679,127.622 71.0012,128.289 70.5,132.5C 69.8333,132.5 69.1667,132.5 68.5,132.5C 67.5343,129.875 66.5343,129.875 65.5,132.5C 64.8333,132.167 64.1667,131.833 63.5,131.5C 63.0798,133.326 63.0798,135.326 63.5,137.5C 62.5,137.5 61.5,137.5 60.5,137.5C 60.7564,135.208 60.4231,133.041 59.5,131C 55.5366,131.288 51.5366,131.788 47.5,132.5C 45.7722,132.41 44.1056,132.077 42.5,131.5C 41.9149,129.135 40.7482,127.135 39,125.5C 38.2599,124.251 38.4265,123.251 39.5,122.5C 42.9379,126.851 46.9379,127.517 51.5,124.5C 52.1667,124.5 52.8333,124.5 53.5,124.5C 54.9305,124.579 56.2638,124.246 57.5,123.5C 57.7053,119.625 59.7053,117.959 63.5,118.5 Z"/></g>
<g><path style="opacity:1" fill="#f1c5c4" d="M 86.5,126.5 C 86.5,127.167 86.8333,127.5 87.5,127.5C 89.8648,130.995 89.1981,131.328 85.5,128.5C 85.3284,127.508 85.6618,126.842 86.5,126.5 Z"/></g>
<g><path style="opacity:1" fill="#cda1a3" d="M 75.5,130.5 C 75.6309,131.376 75.2975,132.043 74.5,132.5C 72.9767,132.207 71.6434,132.207 70.5,132.5C 71.0012,128.289 72.6679,127.622 75.5,130.5 Z"/></g>
<g><path style="opacity:1" fill="#b68989" d="M 80.5,126.5 C 81.3074,130.397 82.9741,131.063 85.5,128.5C 85.4431,129.609 85.1098,130.609 84.5,131.5C 84.5,132.167 84.1667,132.5 83.5,132.5C 81.9561,131.086 80.2894,130.753 78.5,131.5C 77.7025,131.043 77.3691,130.376 77.5,129.5C 77.1667,128.833 76.8333,128.167 76.5,127.5C 77.7079,126.766 79.0413,126.433 80.5,126.5 Z"/></g>
<g><path style="opacity:1" fill="#e5bcbc" d="M 101.5,127.5 C 102.791,127.263 103.791,127.596 104.5,128.5C 103.947,132.456 103.114,132.456 102,128.5C 101.751,129.624 101.251,130.624 100.5,131.5C 100.167,131.333 99.8333,131.167 99.5,131C 100.085,129.698 100.751,128.531 101.5,127.5 Z"/></g>
<g><path style="opacity:1" fill="#65292c" d="M 111.5,119.5 C 117.197,123.14 123.53,124.306 130.5,123C 131.056,122.617 131.389,122.117 131.5,121.5C 133.179,121.715 134.179,121.048 134.5,119.5C 134.833,119.5 135.167,119.5 135.5,119.5C 135.5,120.5 135.5,121.5 135.5,122.5C 131.932,122.759 130.599,124.759 131.5,128.5C 128.575,128.54 125.909,127.707 123.5,126C 121.5,125.333 119.5,125.333 117.5,126C 119.5,127.333 121.5,128.667 123.5,130C 128.155,130.499 132.821,130.666 137.5,130.5C 137.5,127.833 137.5,125.167 137.5,122.5C 138.5,122.5 139.5,122.5 140.5,122.5C 140.804,123.15 141.137,123.817 141.5,124.5C 139.91,126.68 138.576,129.013 137.5,131.5C 131.906,132.749 126.406,132.416 121,130.5C 119.812,131.563 119.312,132.897 119.5,134.5C 117.059,135.756 114.726,135.756 112.5,134.5C 112.918,133.778 113.584,133.278 114.5,133C 113.167,132.333 113.167,131.667 114.5,131C 113.906,130.536 113.239,130.369 112.5,130.5C 112.027,129.094 111.027,128.427 109.5,128.5C 110.162,126.53 110.828,124.53 111.5,122.5C 111.376,121.893 111.043,121.56 110.5,121.5C 110.833,120.833 111.167,120.167 111.5,119.5 Z"/></g>
<g><path style="opacity:1" fill="#7c272b" d="M 135.5,122.5 C 136.167,122.5 136.833,122.5 137.5,122.5C 137.5,125.167 137.5,127.833 137.5,130.5C 132.821,130.666 128.155,130.499 123.5,130C 121.5,128.667 119.5,127.333 117.5,126C 119.5,125.333 121.5,125.333 123.5,126C 125.909,127.707 128.575,128.54 131.5,128.5C 130.599,124.759 131.932,122.759 135.5,122.5 Z"/></g>
<g><path style="opacity:1" fill="#673b3b" d="M 97.5,123.5 C 98.1667,124.167 98.8333,124.833 99.5,125.5C 100.167,126.167 100.833,126.833 101.5,127.5C 100.751,128.531 100.085,129.698 99.5,131C 99.8333,131.167 100.167,131.333 100.5,131.5C 101.251,130.624 101.751,129.624 102,128.5C 103.114,132.456 103.947,132.456 104.5,128.5C 105.167,128.5 105.833,128.5 106.5,128.5C 106.67,129.822 106.337,130.989 105.5,132C 106.593,133.365 107.926,133.699 109.5,133C 106.833,132.333 106.833,131.667 109.5,131C 107.381,130.658 107.047,129.825 108.5,128.5C 108.833,128.5 109.167,128.5 109.5,128.5C 111.027,128.427 112.027,129.094 112.5,130.5C 111.972,131.721 111.305,132.887 110.5,134C 111.094,134.464 111.761,134.631 112.5,134.5C 114.726,135.756 117.059,135.756 119.5,134.5C 119.5,135.5 119.5,136.5 119.5,137.5C 111.434,135.968 103.434,134.134 95.5,132C 91.8484,131.501 88.1817,131.335 84.5,131.5C 85.1098,130.609 85.4431,129.609 85.5,128.5C 89.1981,131.328 89.8648,130.995 87.5,127.5C 88.9587,127.567 90.2921,127.234 91.5,126.5C 91.9478,129.487 93.4478,130.487 96,129.5C 96.3076,130.308 96.8076,130.975 97.5,131.5C 98.7879,129.701 98.7879,128.035 97.5,126.5C 97.5,125.5 97.5,124.5 97.5,123.5 Z"/></g>
<g><path style="opacity:1" fill="#e4b4b7" d="M 106.5,128.5 C 107.167,128.5 107.833,128.5 108.5,128.5C 107.047,129.825 107.381,130.658 109.5,131C 106.833,131.667 106.833,132.333 109.5,133C 107.926,133.699 106.593,133.365 105.5,132C 106.337,130.989 106.67,129.822 106.5,128.5 Z"/></g>
<g><path style="opacity:1" fill="#ce9e9d" d="M 91.5,126.5 C 92.7348,126.721 93.7348,127.388 94.5,128.5C 95.5178,127.807 96.5178,127.141 97.5,126.5C 98.7879,128.035 98.7879,129.701 97.5,131.5C 96.8076,130.975 96.3076,130.308 96,129.5C 93.4478,130.487 91.9478,129.487 91.5,126.5 Z"/></g>
<g><path style="opacity:1" fill="#e6bab7" d="M 112.5,130.5 C 113.239,130.369 113.906,130.536 114.5,131C 113.167,131.667 113.167,132.333 114.5,133C 113.584,133.278 112.918,133.778 112.5,134.5C 111.761,134.631 111.094,134.464 110.5,134C 111.305,132.887 111.972,131.721 112.5,130.5 Z"/></g>
<g><path style="opacity:1" fill="#60373f" d="M 77.5,129.5 C 77.3691,130.376 77.7025,131.043 78.5,131.5C 80.2894,130.753 81.9561,131.086 83.5,132.5C 77.3581,133.214 71.3581,134.548 65.5,136.5C 65.6243,135.803 65.6243,134.97 65.5,134C 66.4491,133.383 67.2825,133.549 68,134.5C 68.4643,133.906 68.631,133.239 68.5,132.5C 69.1667,132.5 69.8333,132.5 70.5,132.5C 71.6434,132.207 72.9767,132.207 74.5,132.5C 75.2975,132.043 75.6309,131.376 75.5,130.5C 75.8417,129.662 76.5084,129.328 77.5,129.5 Z"/></g>
<g><path style="opacity:1" fill="#cb9da7" d="M 68.5,132.5 C 68.631,133.239 68.4643,133.906 68,134.5C 67.2825,133.549 66.4491,133.383 65.5,134C 65.6243,134.97 65.6243,135.803 65.5,136.5C 65.1583,137.338 64.4916,137.672 63.5,137.5C 63.0798,135.326 63.0798,133.326 63.5,131.5C 64.1667,131.833 64.8333,132.167 65.5,132.5C 66.5343,129.875 67.5343,129.875 68.5,132.5 Z"/></g>
<g><path style="opacity:1" fill="#269d5f" d="M 161.5,111.5 C 163.167,111.5 164.833,111.5 166.5,111.5C 166.5,124.5 166.5,137.5 166.5,150.5C 164.833,150.5 163.167,150.5 161.5,150.5C 161.5,137.5 161.5,124.5 161.5,111.5 Z"/></g>
<g><path style="opacity:1" fill="#151515" d="M 38.5,144.5 C 38.1667,144.5 37.8333,144.5 37.5,144.5C 37.38,143.414 36.7133,142.747 35.5,142.5C 34.2867,142.747 33.62,143.414 33.5,144.5C 33.5,145.167 33.5,145.833 33.5,146.5C 33.6495,147.552 33.4828,148.552 33,149.5C 32.5026,146.854 32.3359,144.187 32.5,141.5C 34.5,141.5 36.5,141.5 38.5,141.5C 38.5,142.5 38.5,143.5 38.5,144.5 Z"/></g>
<g><path style="opacity:1" fill="#353535" d="M 93.5,141.5 C 100.536,140.603 102.203,143.103 98.5,149C 92.7853,149.401 91.1187,146.901 93.5,141.5 Z"/></g>
<g><path style="opacity:1" fill="#2f2f2f" d="M 53.5,145.5 C 52.596,144.791 52.2627,143.791 52.5,142.5C 51.5,142.5 50.5,142.5 49.5,142.5C 49.5271,144.199 50.1938,145.533 51.5,146.5C 50.1411,147.007 49.1411,148.007 48.5,149.5C 47.52,146.914 47.1866,144.247 47.5,141.5C 49.5273,141.338 51.5273,141.505 53.5,142C 54.7911,143.292 54.7911,144.458 53.5,145.5 Z"/></g>
<g><path style="opacity:1" fill="#212121" d="M 120.5,141.5 C 127.626,141.363 127.959,142.03 121.5,143.5C 122.729,144.281 124.062,144.781 125.5,145C 124.062,145.219 122.729,145.719 121.5,146.5C 127.995,148.387 127.662,149.387 120.5,149.5C 120.5,146.833 120.5,144.167 120.5,141.5 Z"/></g>
<g><path style="opacity:1" fill="#353535" d="M 135.5,142.5 C 137.267,141.35 138.433,142.017 139,144.5C 139.419,143.328 140.085,142.328 141,141.5C 140.52,144.165 139.687,146.831 138.5,149.5C 137.868,146.898 136.868,144.564 135.5,142.5 Z"/></g>
<g><path style="opacity:1" fill="#292929" d="M 144.5,141.5 C 145.5,141.5 146.5,141.5 147.5,141.5C 147.387,144.049 148.054,146.382 149.5,148.5C 149.167,148.833 148.833,149.167 148.5,149.5C 146.562,146.921 144.729,146.921 143,149.5C 142.572,146.678 143.072,144.012 144.5,141.5 Z"/></g>
<g><path style="opacity:1" fill="#93d1ed" d="M 198.5,66.5 C 198.586,67.4959 198.252,68.3292 197.5,69C 199.447,69.9913 201.447,70.3247 203.5,70C 201.456,69.5017 200.122,68.335 199.5,66.5C 201.284,66.8925 202.95,67.5592 204.5,68.5C 204.433,70.4008 204.767,72.2341 205.5,74C 204.833,75 204.167,76 203.5,77C 204.861,79.2638 204.694,81.4304 203,83.5C 202.148,82.4293 201.315,81.4293 200.5,80.5C 200.586,79.5041 200.252,78.6708 199.5,78C 200.308,77.6924 200.975,77.1924 201.5,76.5C 200.122,74.7866 198.455,73.4533 196.5,72.5C 195.571,73.6888 195.238,75.0222 195.5,76.5C 196.552,76.3505 197.552,76.5172 198.5,77C 195.124,77.3071 193.79,79.1405 194.5,82.5C 194.461,83.7562 194.961,84.7562 196,85.5C 196.654,84.3044 197.154,84.3044 197.5,85.5C 196.051,86.1719 194.718,86.8386 193.5,87.5C 193.285,89.1788 193.952,90.1788 195.5,90.5C 195.36,92.1238 196.027,93.2904 197.5,94C 196.944,94.3826 196.611,94.8826 196.5,95.5C 194.265,96.2481 194.598,97.0814 197.5,98C 196.5,98.3333 195.5,98.6667 194.5,99C 196.134,99.4935 197.801,99.6602 199.5,99.5C 200.338,99.8417 200.672,100.508 200.5,101.5C 199.504,101.586 198.671,101.252 198,100.5C 197.552,102.224 196.718,102.891 195.5,102.5C 197.46,103.519 199.46,103.519 201.5,102.5C 201.5,103.5 201.5,104.5 201.5,105.5C 200.504,105.586 199.671,105.252 199,104.5C 198.552,106.224 197.718,106.891 196.5,106.5C 197.729,107.281 199.062,107.781 200.5,108C 198.789,109.133 198.289,110.633 199,112.5C 200.969,115.124 202.802,115.124 204.5,112.5C 205.268,111.737 205.768,110.737 206,109.5C 209.263,113.154 212.43,116.987 215.5,121C 215.355,121.772 215.022,122.439 214.5,123C 216.081,123.707 217.581,124.54 219,125.5C 221.387,123.698 223.887,123.364 226.5,124.5C 227.492,124.328 228.158,124.662 228.5,125.5C 229.167,126.167 229.833,126.833 230.5,127.5C 231.842,128.793 233.509,129.626 235.5,130C 242.536,130.72 249.536,130.553 256.5,129.5C 261.369,128.4 266.036,126.067 270.5,122.5C 273.529,117.809 277.196,113.809 281.5,110.5C 282.708,109.766 284.041,109.433 285.5,109.5C 285.586,110.496 285.252,111.329 284.5,112C 285.966,112.635 287.3,113.469 288.5,114.5C 289.518,113.807 290.518,113.141 291.5,112.5C 292.272,113.694 293.272,114.694 294.5,115.5C 286.332,130.267 273.999,139.767 257.5,144C 229.367,148.183 208.2,138.016 194,113.5C 189.707,101.527 188.374,89.1935 190,76.5C 190.793,71.6688 192.626,67.3355 195.5,63.5C 197.879,62.4331 198.879,63.4331 198.5,66.5 Z"/></g>
<g><path style="opacity:1" fill="#245265" d="M 244.5,137.5 C 245.434,136.432 245.768,135.099 245.5,133.5C 247.39,133.297 248.89,133.963 250,135.5C 250.556,133.405 251.056,133.238 251.5,135C 251,136.5 250.5,138 250,139.5C 247.912,133.184 246.412,133.184 245.5,139.5C 244.702,139.043 244.369,138.376 244.5,137.5 Z"/></g>
<g><path style="opacity:1" fill="#204c5f" d="M 244.5,137.5 C 242.908,136.398 242.075,137.065 242,139.5C 241.226,137.597 241.56,135.93 243,134.5C 244.039,135.244 244.539,136.244 244.5,137.5 Z"/></g>
<g><path style="opacity:1" fill="#346575" d="M 232.5,132.5 C 236.181,132.718 236.848,133.884 234.5,136C 235.517,137.049 235.684,138.216 235,139.5C 234.676,137.431 233.842,137.098 232.5,138.5C 232.167,138 231.833,137.5 231.5,137C 232.148,135.56 232.481,134.06 232.5,132.5 Z"/></g>
<g><path style="opacity:1" fill="#345e75" d="M 253.5,132.5 C 255.193,133.475 256.693,134.808 258,136.5C 258.667,137.167 258.667,137.833 258,138.5C 256.667,137.167 255.333,137.167 254,138.5C 253.505,136.527 253.338,134.527 253.5,132.5 Z"/></g>
<g><path style="opacity:1" fill="#1b4b5c" d="M 237.5,133.5 C 240.598,133.413 240.932,133.913 238.5,135C 240.891,136.309 240.891,137.309 238.5,138C 240.932,139.087 240.598,139.587 237.5,139.5C 237.5,137.5 237.5,135.5 237.5,133.5 Z"/></g>
<g><path style="opacity:1" fill="#d9f5fc" d="M 230.5,127.5 C 237.578,129.434 244.578,129.767 251.5,128.5C 253.415,128.216 255.081,128.549 256.5,129.5C 249.536,130.553 242.536,130.72 235.5,130C 233.509,129.626 231.842,128.793 230.5,127.5 Z"/></g>
<g><path style="opacity:1" fill="#8890a0" d="M 228.5,125.5 C 235.974,127.873 243.641,128.873 251.5,128.5C 244.578,129.767 237.578,129.434 230.5,127.5C 229.833,126.833 229.167,126.167 228.5,125.5 Z"/></g>
<g><path style="opacity:1" fill="#abd3ef" d="M 200.5,109.5 C 201.5,109.5 202.5,109.5 203.5,109.5C 203.5,110.5 203.5,111.5 203.5,112.5C 202.5,112.5 201.5,112.5 200.5,112.5C 200.5,111.5 200.5,110.5 200.5,109.5 Z"/></g>
<g><path style="opacity:1" fill="#4d7a95" d="M 200.5,80.5 C 199.467,83.5992 197.467,84.2659 194.5,82.5C 193.79,79.1405 195.124,77.3071 198.5,77C 197.552,76.5172 196.552,76.3505 195.5,76.5C 195.238,75.0222 195.571,73.6888 196.5,72.5C 198.455,73.4533 200.122,74.7866 201.5,76.5C 200.975,77.1924 200.308,77.6924 199.5,78C 200.252,78.6708 200.586,79.5041 200.5,80.5 Z"/></g>
<g><path style="opacity:1" fill="#234b67" d="M 198.5,66.5 C 198.833,66.5 199.167,66.5 199.5,66.5C 200.122,68.335 201.456,69.5017 203.5,70C 201.447,70.3247 199.447,69.9913 197.5,69C 198.252,68.3292 198.586,67.4959 198.5,66.5 Z"/></g>
<g><path style="opacity:1" fill="#cbcbcb" d="M 37.5,144.5 C 36.1667,144.5 34.8333,144.5 33.5,144.5C 33.62,143.414 34.2867,142.747 35.5,142.5C 36.7133,142.747 37.38,143.414 37.5,144.5 Z"/></g>
<g><path style="opacity:1" fill="#303231" d="M 63.5,141.5 C 65.5273,141.338 67.5273,141.505 69.5,142C 69.9574,142.414 70.2907,142.914 70.5,143.5C 70.4307,145.278 70.0974,147.111 69.5,149C 67.5273,149.495 65.5273,149.662 63.5,149.5C 63.5,146.833 63.5,144.167 63.5,141.5 Z"/></g>
<g><path style="opacity:1" fill="#dee3e1" d="M 65.5,142.5 C 66.675,142.281 67.675,142.614 68.5,143.5C 66.9483,144.798 65.9483,144.465 65.5,142.5 Z"/></g>
<g><path style="opacity:1" fill="#f3f3f3" d="M 95.5,142.5 C 96.5,142.5 97.5,142.5 98.5,142.5C 98.5,144.167 98.5,145.833 98.5,147.5C 97.1667,147.5 95.8333,147.5 94.5,147.5C 94.366,145.708 94.6993,144.042 95.5,142.5 Z"/></g>
<g><path style="opacity:1" fill="#262626" d="M 40.5,141.5 C 47.6258,141.363 47.9592,142.03 41.5,143.5C 43.0777,144.298 44.7444,144.798 46.5,145C 41.2702,145.909 41.2702,147.075 46.5,148.5C 44.604,149.466 42.604,149.799 40.5,149.5C 40.5,146.833 40.5,144.167 40.5,141.5 Z"/></g>
<g><path style="opacity:1" fill="#2b2b2b" d="M 101.5,141.5 C 103.527,141.338 105.527,141.505 107.5,142C 102.167,143 102.167,144 107.5,145C 106.207,145.49 104.873,145.657 103.5,145.5C 103.762,146.978 103.429,148.311 102.5,149.5C 101.52,146.914 101.187,144.247 101.5,141.5 Z"/></g>
<g><path style="opacity:1" fill="#373636" d="M 111.5,141.5 C 112.931,141.881 113.764,142.881 114,144.5C 117.841,140.346 118.675,140.513 116.5,145C 116.95,146.285 117.617,147.452 118.5,148.5C 118.167,148.833 117.833,149.167 117.5,149.5C 116.52,148.019 115.353,146.685 114,145.5C 113.781,146.938 113.281,148.271 112.5,149.5C 111.52,146.914 111.187,144.247 111.5,141.5 Z"/></g>
<g><path style="opacity:1" fill="#1c1c1c" d="M 130.5,144.5 C 129.883,144.389 129.383,144.056 129,143.5C 128.802,145.382 128.302,147.048 127.5,148.5C 127.192,146.076 127.526,143.743 128.5,141.5C 129.919,142.005 130.585,143.005 130.5,144.5 Z"/></g>
<g><path style="opacity:1" fill="#939393" d="M 53.5,145.5 C 53.1583,146.338 52.4916,146.672 51.5,146.5C 50.1938,145.533 49.5271,144.199 49.5,142.5C 50.5,142.5 51.5,142.5 52.5,142.5C 52.2627,143.791 52.596,144.791 53.5,145.5 Z"/></g>
<g><path style="opacity:1" fill="#454545" d="M 78.5,141.5 C 79.7479,142.334 80.4146,143.667 80.5,145.5C 80.1667,146.833 79.8333,148.167 79.5,149.5C 78.52,146.914 78.1866,144.247 78.5,141.5 Z"/></g>
<g><path style="opacity:1" fill="#494949" d="M 127.5,148.5 C 128.302,147.048 128.802,145.382 129,143.5C 129.383,144.056 129.883,144.389 130.5,144.5C 131.117,144.611 131.617,144.944 132,145.5C 132.219,144.062 132.719,142.729 133.5,141.5C 134.833,144.167 134.833,146.833 133.5,149.5C 132.108,148.395 130.941,147.061 130,145.5C 129.781,146.938 129.281,148.271 128.5,149.5C 127.893,149.376 127.56,149.043 127.5,148.5 Z"/></g>
<g><path style="opacity:1" fill="#b1b1b1" d="M 145.5,143.5 C 146.776,144.386 146.776,145.386 145.5,146.5C 144.438,145.575 144.438,144.575 145.5,143.5 Z"/></g>
<g><path style="opacity:1" fill="#3d3e3e" d="M 55.5,141.5 C 57.3079,142.918 57.9746,144.918 57.5,147.5C 58.5,147.5 59.5,147.5 60.5,147.5C 60.2011,145.396 60.5344,143.396 61.5,141.5C 64.1572,147.948 62.3238,150.282 56,148.5C 55.5034,146.19 55.3367,143.857 55.5,141.5 Z"/></g>
<g><path style="opacity:1" fill="#ececec" d="M 65.5,145.5 C 66.675,145.281 67.675,145.614 68.5,146.5C 66.9483,147.798 65.9483,147.465 65.5,145.5 Z"/></g>
<g><path style="opacity:1" fill="#4a4a4a" d="M 33.5,144.5 C 34.8333,144.5 36.1667,144.5 37.5,144.5C 37.8333,144.5 38.1667,144.5 38.5,144.5C 38.7852,146.288 38.4519,147.955 37.5,149.5C 36.6143,148.675 36.281,147.675 36.5,146.5C 35.5,146.5 34.5,146.5 33.5,146.5C 33.5,145.833 33.5,145.167 33.5,144.5 Z"/></g>
<g><path style="opacity:1" fill="#4d4e4d" d="M 71.5,141.5 C 73.3079,142.918 73.9746,144.918 73.5,147.5C 74.9778,147.238 76.3112,147.571 77.5,148.5C 75.604,149.466 73.604,149.799 71.5,149.5C 71.5,146.833 71.5,144.167 71.5,141.5 Z"/></g>
<g><path style="opacity:1" fill="#383838" d="M 82.5,141.5 C 84.1992,141.34 85.8659,141.506 87.5,142C 88.6956,142.654 88.6956,143.154 87.5,143.5C 86.2638,142.754 84.9305,142.421 83.5,142.5C 83.5,144.167 83.5,145.833 83.5,147.5C 85.3307,146.948 86.9974,146.948 88.5,147.5C 84.9369,150.521 82.6036,149.687 81.5,145C 81.6483,143.744 81.9816,142.577 82.5,141.5 Z"/></g>
<g><path style="opacity:1" fill="#8587b0" d="M 237.5,146.5 C 242.167,146.5 246.833,146.5 251.5,146.5C 247.232,146.869 243.232,147.869 239.5,149.5C 237.265,149.795 235.265,149.461 233.5,148.5C 235.199,148.66 236.866,148.494 238.5,148C 237.944,147.617 237.611,147.117 237.5,146.5 Z"/></g>
</svg>
